<svg width="104" height="88" viewBox="0 0 104 88" fill="none" xmlns="http://www.w3.org/2000/svg">
<g clip-path="url(#clip0_439_3437)">
<path fill-rule="evenodd" clip-rule="evenodd" d="M16.0783 5.81579L9.92044 1.71053L3.07833 3.76316L0.683594 8.89474L1.70991 11.9737L18.8152 27.7105V30.4474L16.0783 31.1316L10.6046 51.6579L18.131 55.7632V66.3684L32.1573 63.9737L20.1836 75.2632L16.0783 76.9737V79.7105L18.8152 83.4737L21.552 84.5L23.9468 80.3947L38.3152 66.3684L43.4468 71.8421L52.3415 85.5263L63.631 66.3684L64.9994 65.3421L80.052 79.7105L81.7625 84.5L85.5257 83.4737L88.9468 79.0263L88.2625 76.9737L84.1573 75.2632L72.1836 63.9737L77.9994 65.3421L86.2099 66.3684L84.8415 53.7105L88.2625 51.6579L93.3941 50.9737L90.6573 39.6842L87.5783 38.3158L86.8941 35.579H88.9468V32.5L86.8941 30.4474H83.131L103.315 10.9474L100.236 3.07895L94.0783 1.71053L90.6573 3.76316L88.2625 5.81579L87.6449 6.38715L86.2099 5.13158L75.9468 3.76316L66.0257 5.13158L63.631 7.52632L55.7625 1.71053H48.5783L46.1836 3.76316L39.3415 5.81579L32.1573 13L29.0783 10.9474L23.9468 13L16.0783 5.81579ZM85.837 8.05942L74.5783 18.4737L73.2099 13L77.9994 11.9737L76.9731 9.57895L85.837 8.05942Z" fill="#F3F3F3"/>
<path d="M64.6277 56.0545C64.2528 56.02 63.878 55.9993 63.5031 55.9683C59.1938 55.8994 54.8708 55.9787 50.5581 55.9925C45.2343 56.0097 39.9105 56.1303 34.6211 56.6336C35.2126 66.0479 43.3084 73.1973 52.7007 72.6044C61.2883 72.0597 68.1253 65.1826 68.6378 56.5716C67.3034 56.3682 65.9655 56.1752 64.6243 56.0545H64.6277Z" fill="white"/>
<path d="M47.2988 12.172C48.6642 12.7718 49.7372 13.5715 50.6451 14.8435C49.1422 14.3471 48.0073 13.6025 47.2988 12.172Z" fill="white"/>
<path d="M60.6514 14.3747C60.1424 15.2055 59.5577 15.9432 58.526 16.1362C58.3643 16.088 58.1924 16.0914 58.0342 16.1466C57.9482 16.0914 57.8484 16.0052 57.9654 15.9328C58.8389 15.3778 59.4683 14.4333 60.586 14.2644L60.6514 14.3747Z" fill="white"/>
<path d="M98.9651 5.79125C97.4003 6.80472 95.1442 8.7834 94.7487 9.19361C93.8752 10.1002 87.8257 15.8156 79.4961 23.6407C79.5752 23.9475 79.8022 24.0165 80.4453 24.2509C82.1098 24.861 83.458 25.809 84.2318 27.274C84.7752 26.788 85.3255 26.3088 85.8688 25.8228C88.713 23.2684 91.5297 20.683 94.3154 18.0632C96.3823 16.1224 98.408 14.13 100.451 12.1616C100.936 9.8796 100.668 7.69754 98.9686 5.79125H98.9651Z" fill="#908E8E"/>
<path d="M69.1288 68.0955C69.3317 67.4716 69.6687 66.9028 70.1193 66.4271L69.6171 65.9548C69.2663 66.3133 68.9878 66.7339 68.7986 67.1993C68.5785 67.7474 68.5751 67.7508 69.1288 68.0955Z" fill="#908E8E"/>
<path d="M71.6895 70.5085C71.8821 69.8742 72.2192 69.2951 72.68 68.816L72.1779 68.3472C71.8443 68.6919 71.5692 69.0917 71.3628 69.5261C71.1668 69.9363 71.1668 70.2776 71.6895 70.5085Z" fill="#908E8E"/>
<path d="M74.219 72.925C74.415 72.2839 74.7624 71.6944 75.2267 71.2118L74.7211 70.7395C74.391 71.0808 74.1227 71.4772 73.9267 71.9116C73.7478 72.2999 73.8453 72.6389 74.219 72.9285V72.925Z" fill="#908E8E"/>
<path d="M66.5885 65.7308C66.7776 65.0965 67.1147 64.5174 67.5721 64.0417L67.07 63.5694C66.7329 63.921 66.4578 64.3312 66.2583 64.7793C66.0142 65.3206 66.0348 65.355 66.5885 65.7308Z" fill="#908E8E"/>
<path d="M20.2955 22.3101C20.127 22.1067 19.8106 22.3825 19.5595 22.448C18.2561 22.7927 16.9595 23.1616 15.6836 23.589C16.5056 24.3371 17.3206 25.0886 18.1495 25.8297C18.6825 26.3054 19.2156 26.7742 19.7521 27.2499C19.759 27.243 19.7693 27.2361 19.7762 27.2292C20.0135 27.0052 20.2783 26.8087 20.5638 26.6467C21.0624 26.3881 20.9971 25.8642 21.1725 25.4608C21.2585 25.2609 21.0212 25.2299 20.9008 25.154C20.0444 24.6404 19.8415 24.0854 20.1476 23.1133C20.2336 22.8444 20.4606 22.5066 20.2955 22.3101Z" fill="#908E8E"/>
<path d="M76.7867 75.3036C76.9862 74.6624 77.3266 74.0798 77.7875 73.5938L77.2819 73.1215C76.938 73.4766 76.6629 73.8902 76.4669 74.3452C76.3064 74.7244 76.413 75.045 76.7867 75.307V75.3036Z" fill="#908E8E"/>
<path d="M9.1887 9.19361C8.78976 8.7834 6.53367 6.80472 4.97229 5.79125C3.29399 7.67341 3.01198 9.821 3.46938 12.072C5.54663 14.0714 7.59981 16.0949 9.70113 18.0666C10.4715 18.7906 11.2488 19.5076 12.026 20.2246C12.2667 19.9867 12.5075 19.7523 12.762 19.5248C14.0241 18.4079 15.3138 17.3221 16.6723 16.3293C12.5247 12.4133 9.75616 9.78308 9.1887 9.19017V9.19361Z" fill="#908E8E"/>
<path d="M79.2959 77.6304C79.5711 77.0375 79.9425 76.4963 80.393 76.0275C80.2142 75.862 80.0319 75.6896 79.8462 75.5173C79.492 75.8792 79.2065 76.3032 78.9967 76.7652C78.8076 77.1754 78.8351 77.458 79.2959 77.6339V77.6304Z" fill="#908E8E"/>
<path d="M82.4239 83.1045C82.6061 83.239 82.8262 83.3113 83.0498 83.3182C83.1048 83.3182 83.2011 83.0459 83.2493 82.8908C83.5553 81.8635 84.195 81.0466 84.9069 80.2813L84.9241 80.264L83.0257 78.4853C82.2519 79.2713 81.7016 80.3364 81.767 81.5671C81.7704 82.1496 82.0077 82.7046 82.4239 83.108V83.1045Z" fill="#908E8E"/>
<path d="M77.2956 22.317C77.2543 22.1722 77.2027 22.0309 77.1442 21.893C77.1099 21.8068 77.072 21.7241 77.0376 21.6414C77.0101 21.5828 76.9826 21.5242 76.9551 21.4656C76.9276 21.407 76.8829 21.3277 76.8416 21.2587C76.8003 21.1898 76.7522 21.1071 76.704 21.0347C76.6559 20.9623 76.6353 20.9312 76.6009 20.883C76.5114 20.7589 76.4151 20.6348 76.312 20.5176C76.226 20.4211 76.1366 20.3314 76.0403 20.2453C76.0059 20.2142 75.9715 20.1832 75.9337 20.1556C75.8752 20.1074 75.8133 20.0591 75.7514 20.0177C75.7067 19.9867 75.662 19.9557 75.6173 19.9281C75.5313 19.8764 75.4419 19.8282 75.349 19.7868L75.2802 19.7558C75.0395 19.6558 74.7884 19.5972 74.5271 19.58H74.245C73.8874 19.6075 73.5366 19.6765 73.1961 19.7937C73.0448 19.8488 72.8178 20.0867 72.6871 19.8419C72.663 19.8006 72.6458 19.7523 72.6355 19.7075C72.4945 19.3869 72.6458 19.0732 72.6733 18.7595C72.7696 17.6151 72.6114 16.5326 71.9614 15.5605C71.1842 14.4437 69.7294 14.03 68.4845 14.5712C68.0546 14.7539 68.1061 15.0952 68.0167 15.4123C67.9583 15.626 68.0511 15.888 67.7588 16.1052C67.5628 15.5364 67.4905 14.9228 67.0469 14.5092C66.6032 14.0955 66.163 13.7439 65.6231 13.2751C66.2112 13.3026 66.5826 13.5302 66.9437 13.7646C67.1226 13.8818 67.2601 13.9783 67.4149 13.7335C68.1268 12.6098 67.7416 9.63141 65.8913 9.30392C65.2104 9.16948 64.5054 9.22809 63.8588 9.47284C64.1202 9.66932 64.3368 9.8865 64.299 10.2519C64.2784 10.4243 64.5397 10.5173 64.4125 10.7586C64.1408 10.6035 63.8622 10.4622 63.5768 10.3381C62.8924 10.083 62.3421 10.3002 61.9329 11.0654C61.754 11.3964 61.6612 11.3998 61.4032 11.1861C61.0972 10.931 60.7808 10.862 60.5916 11.3378C60.5503 11.4481 60.4781 11.586 60.3577 11.5584C59.7215 11.4205 59.3982 11.8996 58.9477 12.2064C58.9993 11.7101 59.2985 11.2723 59.7421 11.0447C59.9554 10.9275 60.2271 10.9103 60.3749 10.6793C60.3887 10.3071 60.5469 10.0864 60.7876 9.97268C60.8358 9.94855 60.8874 9.93131 60.939 9.91752C61.0524 9.8865 61.1728 9.87271 61.2898 9.87271C61.644 9.87271 61.9191 9.80376 62.153 9.52799C62.3215 9.3315 62.5829 9.28324 62.8202 9.2074C62.5863 8.45937 62.2837 7.76304 61.5167 7.39074C61.0421 7.15633 60.4884 7.15978 60.0173 7.40108C59.694 7.54586 59.5599 7.68375 59.9554 7.93195C60.3062 8.1112 60.4884 8.50763 60.4024 8.89371C59.7593 8.13878 58.989 8.00779 58.136 8.12844C58.1739 7.83887 58.4043 7.80785 58.5625 7.76648C59.0337 7.63894 59.0199 7.36661 58.903 6.97708C58.4146 5.31209 57.29 4.22623 55.739 3.59885C53.5413 2.69914 51.3506 2.61985 49.2871 3.98838C48.3517 4.59853 47.6054 5.45343 47.1239 6.46345C47.0276 6.66683 47.031 6.67028 46.7662 6.69441C46.6905 6.61513 46.6149 6.54274 46.5392 6.45311C46.5117 6.42208 46.4773 6.38761 46.4532 6.35659C46.2366 6.06703 45.9786 5.81193 45.6898 5.59132C44.885 4.99495 43.9427 4.90188 42.8421 5.29486C42.0958 5.56374 41.6935 6.06013 41.6591 6.72544C41.6488 6.97019 41.6797 7.21149 41.7451 7.4459C41.8104 7.58723 41.8517 7.73891 41.8723 7.89403C41.8723 7.95263 41.8551 8.00779 41.8276 8.05949C41.58 8.07328 41.4011 7.90782 41.1948 7.81474C41.0125 7.73201 40.8234 7.66652 40.6308 7.61481C40.4416 7.56655 40.249 7.53208 40.0564 7.51484C39.6644 7.48381 39.2689 7.51829 38.8871 7.6217C37.5011 7.98021 36.067 9.1488 36.1083 11.0689C36.1083 11.2102 36.122 11.3515 36.1427 11.4894C36.1599 11.6377 36.1874 11.7859 36.2218 11.9341C36.2321 11.9789 36.2424 12.0203 36.2493 12.0617C36.2837 12.2375 36.2837 12.3547 36.1702 12.3823C36.0601 12.396 35.9501 12.3788 35.8503 12.334C35.2898 12.1444 34.8977 12.4409 34.5779 12.8786C34.3509 13.1854 34.3337 13.5612 34.2615 13.9197C34.172 14.2265 33.866 14.2575 33.639 14.3782C31.5892 15.4123 30.5919 17.1187 30.4199 19.3662L30.6056 19.4628C31.7199 19.742 34.1583 20.7072 33.7421 23.5201C33.7421 23.5201 37.0162 23.8717 36.5347 25.709C36.5347 25.709 38.7152 24.9369 40.2077 25.9365C40.4863 25.7607 40.8062 25.6677 41.1329 25.6677H43.6675C43.7329 25.4574 43.8636 25.2712 44.0355 25.1334L44.0458 25.123C44.1284 25.0679 44.2178 25.0265 44.3141 24.9955L44.3657 24.9817C44.4792 24.9507 44.5961 24.93 44.713 24.9196C44.9641 24.8989 45.0466 24.83 45.0501 24.7128C45.0501 24.6887 45.0501 24.6611 45.0501 24.637C45.0398 24.5818 45.0226 24.5198 45.0019 24.4474C44.8781 24.0061 44.6408 23.6028 44.3141 23.2822C43.8842 22.8789 43.2995 22.6479 42.5636 22.5893C42.3916 22.5755 42.2231 22.5721 42.0511 22.5755C41.5215 22.5893 41.1363 22.7272 40.8681 23.034C40.6858 23.2443 40.5517 23.4891 40.4726 23.751C40.4003 23.9751 40.3453 24.2095 40.3109 24.4439C40.2731 24.6852 40.249 24.9403 40.2249 25.2092C39.9808 24.5853 40.0152 24.0303 40.0736 23.4753C39.9911 22.8375 40.1596 22.1895 40.5413 21.6724C40.7615 21.3587 40.6824 21.1657 40.5001 20.9071C39.9017 20.0832 39.0831 19.7006 38.0824 19.6696C37.8726 19.6696 37.6628 19.642 37.4599 19.58C37.8588 19.2973 38.3472 19.1697 38.8321 19.2283C39.3548 19.2697 39.4855 19.0491 39.4821 18.5561C39.4821 16.8739 38.557 15.7984 37.1022 15.8363C36.38 15.8501 35.7781 16.3982 35.6921 17.1187C35.6577 17.3496 35.7747 17.4255 35.9329 17.5151C36.122 17.6254 36.3628 17.6909 36.4075 18.0149C35.9742 17.9529 35.5683 17.877 35.1591 17.8357C34.5779 17.7909 33.9966 17.8529 33.4361 18.0149C33.3226 18.046 33.1953 18.108 33.13 17.9805C33.0646 17.8529 33.1919 17.784 33.2916 17.7219C33.7525 17.4427 34.2787 17.2876 34.8152 17.2738C35.0215 17.26 35.2726 17.3186 35.2588 16.9808C34.7085 14.8987 36.0361 13.999 37.7694 14.0886C39.3136 14.1679 40.0289 15.2641 40.3763 16.6326C40.4932 17.0911 40.6308 17.2014 41.1122 17.0911C42.4191 16.8119 43.5988 17.9563 43.2342 19.1111C43.1001 19.5317 42.88 19.9281 42.3744 20.0281C42.1681 20.1798 42.0683 20.1798 41.9892 19.8764C41.7898 19.0663 40.7339 18.6906 40.0083 19.1387C39.8019 19.2663 39.7228 19.3835 39.9326 19.5765C40.3522 19.9522 40.7202 20.3625 40.899 20.9209C40.9678 21.1415 41.1329 21.0553 41.2808 21.0002C42.2059 20.6486 43.1654 20.6555 44.1249 20.7968C44.3829 20.8347 44.4689 20.7279 44.5583 20.5417C44.6786 20.3004 44.8025 20.0626 44.9366 19.8282C45.7482 18.4217 47.4025 18.1011 48.8263 18.632C49.0739 18.7251 49.2596 18.8147 49.4969 18.5837C50.9929 17.1325 52.8845 17.2393 54.604 18.2149C55.3022 18.5906 55.8696 19.1766 56.2239 19.8868C56.358 20.1625 56.4956 20.1729 56.7673 20.0626C57.8781 19.6041 58.621 19.8178 59.3019 20.8106C59.5151 21.1174 59.6183 21.0588 59.8625 20.8589C60.9974 19.9316 62.8821 20.3521 63.5699 21.6655C63.5905 21.7379 63.5974 21.8172 63.594 21.893L63.6077 21.9068C63.6868 21.9723 63.7556 22.0481 63.821 22.1274L63.8794 22.1929L63.9345 22.2584L64.048 22.4859C64.2371 22.8686 64.3884 23.265 64.5054 23.6752C64.5569 23.8648 64.5879 24.0613 64.5982 24.2578C64.6051 24.3474 64.6051 24.4405 64.5982 24.5301C64.2784 24.7025 64.2027 24.3784 64.0617 24.2405C62.8236 23.103 61.0421 23.2926 60.1651 24.6714L61.1969 24.7852C61.2794 24.7955 61.3585 24.8093 61.4376 24.8334C61.6715 24.9093 61.8847 25.0334 62.0636 25.1988C62.1495 25.2747 62.239 25.3747 62.1736 25.5056C62.153 25.5505 62.1083 25.5746 62.0601 25.5643C62.036 25.5643 62.012 25.5574 61.9913 25.5505C61.9673 25.5436 61.9466 25.5367 61.9226 25.5332C59.8935 25.2161 58.7585 26.3295 58.1532 28.0635C58.136 28.1634 58.136 28.2668 58.1532 28.3703C58.167 28.3806 58.1876 28.3875 58.2048 28.3909V28.422C58.9477 28.4633 59.6562 28.7391 60.2305 29.2148C60.5503 28.746 61.08 28.4668 61.644 28.4702H61.6887L62.576 28.4944C62.7136 28.2806 62.8924 28.0945 63.1022 27.9531C63.1503 27.9187 63.2019 27.8842 63.2535 27.8566C63.2982 27.829 63.3464 27.8049 63.3945 27.7808C63.453 27.7532 63.5114 27.7256 63.5699 27.7015C63.6284 27.6774 63.6696 27.6636 63.7212 27.6463C63.8244 27.6119 63.931 27.5808 64.0411 27.5567C64.0961 27.5429 64.1477 27.5291 64.2027 27.5188L64.3884 27.4912L64.5707 27.4705C64.6257 27.4705 64.6808 27.4567 64.7323 27.4567C64.839 27.4567 64.949 27.443 65.0556 27.443H65.4167C65.8191 27.4602 66.2181 27.5119 66.6136 27.5946C67.0159 25.3023 68.5945 24.3681 70.3347 24.1509C70.2797 23.3718 69.9667 22.7203 69.131 22.4377C68.5532 22.2446 68.0993 21.8792 67.5593 21.6483C67.5421 21.6172 67.5284 21.5862 67.5181 21.5552C67.5181 21.5483 67.5421 21.5276 67.5593 21.5173C67.6831 21.4449 67.8138 21.3863 67.9514 21.3449C68.003 21.3311 68.0546 21.3208 68.1027 21.3104C68.199 21.2863 68.2953 21.2725 68.395 21.2622C68.4673 21.2553 68.5395 21.2518 68.6117 21.2518C68.6942 21.2518 68.7802 21.2518 68.8662 21.2587C68.9522 21.2656 69.045 21.2725 69.1379 21.2898C69.1998 21.3001 69.2583 21.3139 69.3202 21.3242C69.9255 21.4483 70.4929 21.7069 70.9847 22.0792C71.1911 22.2308 71.3768 22.4066 71.5419 22.6031C71.958 23.2029 71.9133 23.658 71.9133 23.658C71.872 23.9027 71.9133 24.0475 72.0405 24.1302C72.2847 24.1544 72.5255 24.1888 72.7593 24.2302C73.2924 24.2474 73.8151 24.3888 74.2829 24.6439C74.7162 24.7921 75.1255 25.0024 75.5038 25.2678C75.5897 25.3333 75.6688 25.4091 75.7342 25.4953C75.913 25.4436 76.1091 25.2609 76.4564 24.9162C76.5871 24.8024 76.7075 24.6783 76.8175 24.5404C77.3024 23.8717 77.5363 23.1443 77.2784 22.3205L77.2956 22.317ZM66.758 17.1497C66.6067 17.1497 66.4554 17.1807 66.3144 17.2393C66.0874 17.3324 65.8707 17.4565 65.5784 17.6013C65.8673 17.8047 66.2181 17.7323 66.5173 18.1046C65.1691 17.8633 64.2474 18.4803 63.3773 19.2214C63.3773 18.7113 63.6421 18.3424 64.0273 18.0701C64.4125 17.7978 64.2371 17.6668 63.9723 17.4979C62.8374 16.7774 61.6371 17.1221 61.0972 18.3872C60.8977 18.856 60.7154 19.0353 60.1823 18.894C59.5633 18.7319 58.903 18.5872 58.3011 19.025C58.2117 19.0905 58.0948 19.0836 58.0776 18.956C57.9813 18.1632 57.3519 17.8391 56.7879 17.453C56.389 17.453 56.217 17.0911 55.9419 16.8981C55.4501 16.5533 54.9583 16.1948 54.3083 16.4672C54.1879 16.5189 54.0263 16.5809 53.9747 16.6809C53.7099 17.2359 53.3659 17.0945 52.9464 16.8774C52.2379 16.512 51.4813 16.643 50.7694 16.8498C50.3257 16.9601 49.8786 17.0428 49.4247 17.1014C49.2734 17.1945 49.1427 17.2738 48.9466 17.1911C47.8014 16.7326 47.54 16.7877 46.8522 17.6633C46.6905 17.622 46.6802 17.4737 46.6355 17.3565C46.3604 16.6567 45.8376 16.4499 45.1739 16.8394C44.8919 17.0049 44.83 17.0084 44.7406 16.6671C44.5273 15.8742 43.953 15.5985 43.1413 15.857C42.8353 15.9535 42.6977 15.9639 42.5326 15.6157C42.3366 15.2055 41.9927 14.8504 41.4665 14.8229C41.2051 14.8056 41.1982 14.7229 41.3152 14.4988C41.8482 13.475 41.5146 12.7614 40.3866 12.4477C40.1218 12.3754 39.6403 12.3719 40.1458 11.9272C40.9093 10.8207 42.0236 10.4174 43.2961 10.3208C44.7165 10.2312 46.1368 10.4829 47.4437 11.0551C47.4678 10.1002 47.172 9.83134 46.1747 9.96578C45.9099 9.99681 45.7482 10.0726 45.7792 9.65898C45.8892 8.20428 45.4043 7.8044 43.9908 8.13188C43.922 8.14912 43.8395 8.20427 43.7948 8.10431C43.7948 8.09052 43.7948 8.06294 43.8051 8.04915C43.8154 8.03536 43.8292 8.02157 43.8464 8.00779C44.0734 7.48381 44.6064 7.16323 45.1773 7.20804C45.8067 7.27354 46.381 7.69065 46.4739 8.26977C46.553 8.75582 46.7697 8.83511 47.2133 8.80408C48.1178 8.74203 48.8125 9.2729 49.0429 10.1554C49.1427 10.5449 49.263 10.9586 49.2321 11.3481C49.1805 11.9858 49.4935 12.3237 49.9577 12.658C51.2268 13.5715 52.2929 14.7401 53.0874 16.088C53.3006 16.4499 53.4554 16.5327 53.7236 16.1293C53.9093 15.8742 54.212 15.7295 54.5284 15.7432C54.8345 15.7432 55.1921 15.7881 55.2747 15.3813C55.3607 14.9504 55.426 14.5057 55.0339 14.1438C54.6419 13.7818 54.1294 13.7749 53.6308 13.7542C53.4003 13.575 53.3935 13.2578 53.335 12.989C52.9532 11.2757 51.2268 11.4481 51.2509 11.3378C51.526 10.7552 52.2035 10.5311 53.0427 10.6931C53.6514 10.8103 54.0847 11.2137 54.5868 11.5032C54.7382 11.1516 55.0752 10.9655 55.3091 10.6897C55.4019 10.5794 55.5808 10.4898 55.4535 10.3071C55.3503 10.183 55.1784 10.1416 55.0339 10.214C54.8689 10.2657 54.7107 10.3312 54.5593 10.4139C54.439 10.4794 54.3186 10.6035 54.2085 10.4553C54.1226 10.3346 54.2395 10.1967 54.3151 10.0933C54.5284 9.75895 54.9067 9.5728 55.3022 9.60728C55.4088 9.61417 55.5601 9.64519 55.5876 9.49697C55.6014 9.42457 55.5223 9.32805 55.4673 9.25566C55.1062 8.75238 54.4046 8.63517 53.9025 8.99713C53.8956 9.00402 53.8853 9.00747 53.8784 9.01436C53.7718 9.0833 53.703 9.25566 53.5482 9.19361C53.3935 9.13157 53.4519 8.95576 53.4588 8.83166C53.5001 7.9354 52.9636 7.40108 52.2723 6.99776C50.8588 6.17734 49.3421 6.07047 47.7292 6.48758C47.7292 6.03945 47.9974 5.7947 48.2038 5.51203C49.8821 3.20242 52.5199 2.82323 54.9789 4.01251C56.0794 4.54337 56.5781 5.82917 56.2961 7.12876C56.2514 7.33559 56.1826 7.53552 56.1345 7.73891C56.0966 7.89058 56.0932 8.06983 56.3133 8.08707C57.0114 8.14223 57.1215 8.62483 57.0149 9.1557C56.922 9.61417 57.0733 9.6383 57.4413 9.56936C58.1808 9.43836 58.903 9.85892 59.1644 10.5621C58.59 10.345 58.0673 10.0933 57.4792 10.1761C57.3072 10.1761 57.1353 10.2105 56.9771 10.2726C56.8257 10.3553 56.6366 10.4415 56.6194 10.6207C56.5953 10.862 56.8292 10.831 56.9839 10.8896C57.3588 11.0413 57.3898 11.5411 57.039 11.9582C56.6056 12.4512 56.0519 12.8304 55.4329 13.051C55.2437 13.1268 55.0718 13.182 55.0649 13.4233C55.8284 13.9783 56.0003 14.5229 55.6736 15.3089C55.6014 15.4847 55.3469 15.7122 55.6461 15.8467C55.9453 15.9811 56.2445 16.4568 56.6675 16.1121C57.1662 15.695 57.7268 15.3468 58.2048 14.9159C59.2985 13.9438 60.5194 13.1234 61.8331 12.4822C63.2054 11.81 63.9551 12.0823 64.6395 13.4474C64.8149 13.7439 64.9249 14.0783 64.9559 14.423C64.4331 13.9369 63.9895 13.3544 63.195 13.637C62.4006 13.9197 61.9054 14.485 61.503 15.2848C62.7995 15.1228 63.962 15.1159 64.5948 16.4396C64.8321 16.6395 64.9972 16.6085 65.2482 16.3844C65.9945 15.7122 66.7408 15.8984 66.9781 16.7671C67.0469 16.9911 67.0847 17.1497 66.7752 17.1531L66.758 17.1497Z" fill="#908E8E"/>
<path d="M66.5781 28.029C66.8464 28.091 67.0115 28.0979 67.063 27.9118C67.0115 28.0876 66.8498 28.0704 66.5781 28.029Z" fill="#908E8E"/>
<path d="M64.2991 28.1531C64.361 28.1221 64.4263 28.0979 64.4882 28.0704C64.4091 28.091 64.3369 28.1152 64.2578 28.1427L64.2991 28.1531Z" fill="#908E8E"/>
<path d="M32.3271 70.5085C32.8499 70.2776 32.8499 69.9363 32.6539 69.5261C32.4406 69.0745 32.1517 68.6643 31.8009 68.3127L31.2988 68.7815C31.7769 69.2641 32.1277 69.857 32.3271 70.5085Z" fill="#908E8E"/>
<path d="M34.8779 68.0955C35.4351 67.7439 35.4316 67.7405 35.2115 67.1992C35.0155 66.7201 34.7232 66.2823 34.3517 65.9203L33.8496 66.3926C34.3208 66.8752 34.6716 67.4578 34.8779 68.099V68.0955Z" fill="#908E8E"/>
<path d="M29.7931 72.925C30.1645 72.6355 30.262 72.2965 30.0854 71.9081C29.8825 71.46 29.5971 71.0498 29.2497 70.7016L28.7441 71.1739C29.2291 71.6634 29.5902 72.2632 29.7931 72.925Z" fill="#908E8E"/>
<path d="M27.2203 75.3036C27.594 75.0439 27.7006 74.7256 27.5401 74.3487C27.3406 73.8765 27.0483 73.4456 26.6838 73.0836L26.1816 73.5559C26.6597 74.0488 27.0174 74.6486 27.2203 75.3036Z" fill="#908E8E"/>
<path d="M24.7144 77.6304C25.1719 77.4546 25.1994 77.1719 25.0205 76.7617C24.8039 76.2826 24.5047 75.8482 24.1332 75.4794L23.5898 75.9861C24.0541 76.4653 24.4359 77.0203 24.7179 77.627L24.7144 77.6304Z" fill="#908E8E"/>
<path d="M19.095 80.2813C19.8069 81.0466 20.4432 81.8635 20.7527 82.8908C20.8008 83.0425 20.8971 83.3217 20.9522 83.3182C21.1757 83.3148 21.3958 83.239 21.5781 83.1045C21.9942 82.7046 22.2315 82.1531 22.2384 81.5774C22.3038 80.3261 21.7363 79.2471 20.9453 78.4577L19.0469 80.2227C19.0641 80.2399 19.0847 80.2606 19.1019 80.2778L19.095 80.2813Z" fill="#908E8E"/>
<path d="M49.919 28.2737C49.5476 27.3464 49.0386 26.5122 48.2338 25.9021C48.141 25.8331 48.0447 25.7676 47.9449 25.7125C47.8486 25.6573 47.7455 25.6091 47.6388 25.5677H47.6216C47.5322 25.5332 47.4359 25.5091 47.3431 25.4919C47.2433 25.4746 47.1402 25.4608 47.037 25.4574H46.9407C46.614 25.4574 46.5142 25.5436 46.6965 25.8642C46.9716 26.3571 46.8685 26.7949 46.4283 27.2292C46.3698 26.9879 46.2666 26.7639 46.1222 26.5639C46.0775 26.5053 46.0293 26.4467 45.9777 26.395C45.9089 26.3226 45.8333 26.2606 45.7542 26.202L45.6957 26.1572C45.6132 26.102 45.5306 26.0503 45.4447 26.0055C45.3759 25.9676 45.3105 25.9366 45.2383 25.9021C45.1661 25.8711 45.0939 25.84 45.0182 25.8159H45.001C44.9082 25.7849 44.8119 25.7642 44.7156 25.7539L44.6502 25.7435C44.5539 25.7332 44.4576 25.7332 44.3613 25.7435C44.9116 25.8883 45.3484 26.3054 45.5203 26.8466C45.5582 26.9707 45.5788 27.1017 45.5857 27.2327V27.2534C45.5891 27.3809 45.5788 27.505 45.5513 27.6291C45.5513 27.636 45.5513 27.6395 45.5513 27.6463C45.5238 27.7739 45.4791 27.8945 45.4171 28.0083C45.3552 28.129 45.283 28.2393 45.1936 28.3392C45.2658 28.3634 45.3449 28.384 45.4103 28.4116C45.6785 28.4116 45.9433 28.4013 46.2116 28.3978H46.2391C46.8238 28.3944 47.374 28.6908 47.6904 29.1838C48 28.6736 48.5537 28.3634 49.1486 28.3634H49.9362C49.9362 28.3323 49.9293 28.3013 49.9224 28.2703L49.919 28.2737Z" fill="#908E8E"/>
<path d="M40.0698 23.4718C39.9873 22.8341 40.1558 22.186 40.5375 21.6689C40.7576 21.3553 40.6786 21.1622 40.4963 20.9037C39.8979 20.0798 39.0793 19.6972 38.0785 19.6661C37.8688 19.6661 37.659 19.6386 37.4561 19.5765C37.855 19.2938 38.3434 19.1663 38.8283 19.2249C39.351 19.2663 39.4817 19.0456 39.4783 18.5527C39.4783 16.8705 38.5532 15.795 37.0984 15.8329C36.3762 15.8467 35.7743 16.3948 35.6883 17.1152C35.6574 17.3462 35.7709 17.422 35.9291 17.5116C36.1182 17.622 36.359 17.6875 36.4071 18.0115C35.9738 17.9494 35.568 17.8736 35.1587 17.8322C34.5844 17.7909 34.0066 17.8529 33.4529 18.0149C33.3394 18.046 33.2121 18.108 33.1468 17.9805C33.0815 17.8529 33.2087 17.784 33.3084 17.7219C33.7693 17.4427 34.2955 17.2876 34.832 17.2738C35.0383 17.26 35.2894 17.3186 35.2756 16.9808C35.3203 16.8291 35.3719 16.6878 35.4063 16.5395C35.8534 14.6333 38.0166 14.616 38.9452 15.6226C39.4714 16.1948 39.7672 16.8739 39.9838 17.5944C40.0767 17.9012 40.1592 18.008 40.4928 17.9012C41.1635 17.6978 41.7791 17.7978 42.2984 18.3217C42.8452 18.8698 42.632 19.4421 42.3878 20.0246C42.1815 20.1763 42.0817 20.1763 42.0026 19.873C41.8032 19.0629 40.7473 18.6871 40.0217 19.1353C39.8153 19.2628 39.7362 19.38 39.946 19.5731C40.3656 19.9488 40.7336 20.359 40.9124 20.9175C40.9812 21.1381 41.1463 21.0519 41.2942 20.9967C42.2193 20.6451 43.1788 20.652 44.1383 20.7934C44.3963 20.8313 44.4823 20.7244 44.5717 20.5383C44.692 20.297 44.8158 20.0591 44.95 19.8247C45.7616 18.4183 47.4159 18.0977 48.8397 18.6285C49.0873 18.7216 49.273 18.8112 49.5103 18.5803C51.0063 17.129 52.9013 17.2359 54.6174 18.2114C55.3156 18.5872 55.883 19.1732 56.2373 19.8833C56.3714 20.1591 56.509 20.1694 56.7807 20.0591C57.8915 19.6006 58.6344 19.8144 59.3153 20.8071C59.5285 21.1139 59.6317 21.0553 59.8759 20.8554C61.0108 19.9281 62.8955 20.3487 63.5833 21.662C63.6039 21.7344 63.6108 21.8137 63.6074 21.8896C62.0976 20.852 60.7013 20.945 59.3394 22.2136C59.1021 21.5035 58.8442 20.8278 58.1013 20.5107C57.3206 20.1763 56.6912 20.5658 56.0309 20.9381C55.5082 18.9974 54.1153 18.2424 52.2857 18.1666C51.082 18.1184 50.1362 18.6871 49.4656 19.673C49.2455 19.9971 49.1148 20.0315 48.8225 19.7454C47.9799 18.9319 47.0203 18.9422 46.1606 19.7247C45.6894 20.1522 45.2836 20.6451 44.9569 21.1932C44.7677 21.5138 44.5682 21.6034 44.2037 21.4759C42.3637 20.8347 40.7886 21.6 40.0698 23.4753V23.4718Z" fill="#6D6D6C"/>
<path d="M64.6044 24.5163C64.2845 24.6887 64.2089 24.3646 64.0679 24.2267C62.8298 23.0892 61.0483 23.2788 60.1713 24.6611C60.0509 24.0165 60.5152 23.2857 61.2374 22.9789C62.2073 22.5652 63.3353 22.8582 63.9819 23.6959C64.1917 23.9648 64.3946 24.244 64.6044 24.5163Z" fill="#6D6D6C"/>
<path d="M55.0588 13.4302C54.4914 13.3923 54.2506 13.2785 54.5498 12.5856C54.7218 12.2513 54.7356 11.8583 54.5842 11.517C54.7356 11.1654 55.0726 10.9793 55.3065 10.7035C55.3993 10.5932 55.5781 10.5035 55.4509 10.3208C55.3477 10.1967 55.1758 10.1554 55.0313 10.2278C54.8662 10.2795 54.708 10.345 54.5567 10.4277C54.4364 10.4932 54.316 10.6173 54.2059 10.4691C54.1199 10.3484 54.2369 10.2105 54.3125 10.1071C54.5258 9.77274 54.9041 9.58659 55.2996 9.62106C55.4062 9.62796 55.5575 9.65898 55.585 9.51075C55.5988 9.43836 55.5197 9.34184 55.4647 9.26945C55.1035 8.76616 54.402 8.64896 53.8998 9.01091C53.893 9.01781 53.8826 9.02126 53.8758 9.02815C53.7692 9.09709 53.7004 9.26945 53.5456 9.2074C53.3908 9.14535 53.4493 8.96955 53.4562 8.84545C53.4975 7.94918 52.961 7.41487 52.2697 7.01155C50.8562 6.19112 49.3395 6.08426 47.7266 6.50137C47.7266 6.05324 47.9948 5.80849 48.2012 5.52582C49.8795 3.21621 52.5173 2.83702 54.9763 4.0263C56.0768 4.55716 56.5755 5.84296 56.2935 7.14254C56.2488 7.34937 56.18 7.54931 56.1319 7.75269C56.094 7.90437 56.0906 8.08362 56.3107 8.10086C57.0088 8.15601 57.1189 8.63862 57.0123 9.16948C56.9194 9.62796 57.0707 9.65209 57.4387 9.58314C58.1781 9.45215 58.9004 9.87271 59.1617 10.5759C58.5874 10.3588 58.0647 10.1071 57.4766 10.1898C57.3046 10.1898 57.1326 10.2243 56.9744 10.2864C56.8231 10.3691 56.634 10.4553 56.6168 10.6345C56.5927 10.8758 56.8266 10.8448 56.9813 10.9034C57.3562 11.0551 57.3871 11.5549 57.0363 11.972C56.603 12.465 56.0493 12.8442 55.4303 13.0648C55.2411 13.1406 55.0692 13.1958 55.0623 13.4371L55.0588 13.4302Z" fill="#6D6D6C"/>
<path d="M40.1448 11.9272C40.5506 11.9203 40.8567 11.6549 41.204 11.4998C42.3596 10.9758 44.0792 11.3067 44.8839 12.2271C45.1006 12.4753 44.908 12.5339 44.7189 12.627C44.2958 12.8269 43.804 12.9441 43.6149 13.4509C43.2985 13.6956 42.8755 13.8335 42.7138 14.2885C42.9821 14.3368 43.1403 14.1679 43.3226 14.0852C44.399 13.606 45.9673 13.8439 46.6929 14.6298C47.7797 15.7984 49.0935 16.4396 50.6995 16.4327C50.3006 16.705 49.7469 16.6774 49.4271 17.1014C49.2757 17.1945 49.145 17.2738 48.949 17.1911C47.8038 16.7326 47.5424 16.7877 46.8546 17.6633C46.6929 17.622 46.6826 17.4737 46.6379 17.3565C46.3628 16.6567 45.84 16.4499 45.1763 16.8394C44.8943 17.0049 44.8324 17.0084 44.7429 16.6671C44.5297 15.8742 43.9554 15.5985 43.1437 15.857C42.8376 15.9535 42.7001 15.9639 42.535 15.6157C42.339 15.2055 41.995 14.8504 41.4689 14.8228C41.2075 14.8056 41.2006 14.7229 41.3175 14.4988C41.8506 13.475 41.517 12.7614 40.389 12.4477C40.1345 12.3719 39.653 12.3685 40.1551 11.9238L40.1448 11.9272Z" fill="#6D6D6C"/>
<path d="M64.4294 16.4499H64.5945C64.8318 16.6499 64.9968 16.6188 65.2479 16.3948C65.9942 15.7226 66.7405 15.9087 66.9778 16.7774C67.0363 16.9911 67.0775 17.1531 66.7646 17.1531C66.6132 17.1531 66.4619 17.1842 66.3209 17.2428C66.0939 17.3358 65.8773 17.4599 65.5849 17.6047C65.8738 17.8081 66.2246 17.7357 66.5238 18.108C65.1757 17.8667 64.254 18.4838 63.3804 19.2249C63.3736 18.7147 63.6452 18.3424 64.0304 18.0701C64.4156 17.7978 64.2402 17.6668 63.9754 17.4979C62.8405 16.7774 61.6402 17.1221 61.1003 18.3872C60.9008 18.8561 60.7185 19.0353 60.1855 18.894C59.5664 18.732 58.9061 18.5872 58.3042 19.025C58.2148 19.0905 58.0979 19.0836 58.0807 18.956C57.9844 18.1632 57.355 17.8391 56.791 17.453C57.8262 17.3014 58.8476 17.1187 59.814 16.6878C60.1201 16.5499 60.3781 16.2707 60.7564 16.312C60.409 16.7981 60.0788 17.2807 59.3463 17.1669C59.0815 17.1256 58.8992 17.36 58.7892 17.6013C58.7376 17.6875 58.7513 17.7978 58.8236 17.8702C58.8923 17.9253 58.968 17.8805 59.0265 17.8253C59.3876 17.4737 59.79 17.5117 60.1923 17.7357C60.409 17.8564 60.4984 17.8322 60.6222 17.5944C61.2963 16.3293 62.5722 15.8777 63.9066 16.4017C64.0717 16.4568 64.2333 16.6395 64.4294 16.4465V16.4499Z" fill="#6D6D6C"/>
<path d="M37.3675 28.2496H37.395C38.1826 27.5912 38.953 26.9466 39.7096 26.3192C39.235 26.0606 38.695 25.94 38.1516 25.971C38.0966 25.971 38.045 25.971 38.0003 25.9848C37.9178 25.9951 37.8352 26.0124 37.7527 26.0331C37.6805 26.0503 37.6048 26.071 37.536 26.0951C37.4673 26.1158 37.4019 26.1399 37.3366 26.1675C37.2506 26.2054 37.1646 26.2502 37.0821 26.3019C37.0339 26.3295 36.9858 26.3537 36.9376 26.3847C36.8069 26.4743 36.6866 26.5777 36.5765 26.6915C36.322 26.9569 36.2292 27.1258 36.6763 27.2913C37.0786 27.443 37.3538 27.8222 37.3675 28.253V28.2496Z" fill="#6D6D6C"/>
<path d="M37.8591 30.1731L37.8281 30.2628C37.8969 30.2283 37.9623 30.1973 38.031 30.1697H37.8591V30.1731Z" fill="#6D6D6C"/>
<path d="M38.4434 29.5078H38.5259V29.4354L38.4434 29.5078Z" fill="#6D6D6C"/>
<path d="M76.0503 29.0666C76.1329 29.0666 76.2189 29.0666 76.3152 29.0735C77.4191 29.1424 78.5334 29.2148 79.6236 29.2907C80.2392 29.3286 80.8342 29.5078 81.3673 29.8181C81.7731 29.463 82.172 29.1011 82.5779 28.7494C82.5297 28.6185 82.4781 28.4875 82.4128 28.3634C82.3887 28.3185 82.3612 28.2772 82.3371 28.2289C82.2959 28.1531 82.2511 28.0772 82.203 28.0049C82.172 27.9566 82.1342 27.9118 82.0998 27.867C82.0654 27.8222 82.0035 27.7394 81.9485 27.6808L81.8281 27.5533C81.7731 27.4947 81.7146 27.4395 81.6562 27.3878L81.5255 27.2706C81.4601 27.2155 81.3948 27.1672 81.3295 27.1189L81.1988 27.0224C81.1231 26.9673 81.0406 26.919 80.9615 26.8707L80.8445 26.7983C80.7242 26.726 80.5969 26.657 80.4697 26.5915C80.1567 26.4295 79.83 26.2916 79.4964 26.1744C78.499 25.84 77.4501 25.6884 76.3977 25.7332C76.3255 25.7332 76.2533 25.7332 76.1879 25.747H76.1398C76.0744 25.7539 76.0125 25.7711 75.9541 25.7918C75.9128 25.809 75.875 25.8331 75.8406 25.8642C75.8302 25.8745 75.8234 25.8814 75.8165 25.8917C75.7958 25.9159 75.7821 25.9469 75.7683 25.9745C75.7649 25.9883 75.758 26.0055 75.7546 26.0227C75.7477 26.0606 75.7477 26.102 75.7546 26.1434V26.202C75.7683 26.2813 75.789 26.3606 75.8199 26.4364C75.9437 26.8225 75.9506 27.2361 75.844 27.6291C75.8199 27.7463 75.789 27.8635 75.7615 27.9807V27.9876C75.7511 28.0221 75.7408 28.0566 75.7305 28.0945C75.7099 28.1703 75.6892 28.2462 75.6617 28.3151V28.3392C75.648 28.3772 75.6342 28.4151 75.6205 28.453C75.5964 28.5185 75.5689 28.584 75.5448 28.6495L75.5276 28.6977L75.4898 28.7874C75.4485 28.8839 75.4004 28.9804 75.3488 29.0735C75.3419 29.0873 75.335 29.1011 75.3281 29.1148C75.5654 29.0735 75.8027 29.0562 76.0435 29.0631L76.0503 29.0666Z" fill="#6D6D6C"/>
<path d="M82.6387 31.5761C82.6387 31.5761 82.649 31.583 82.6524 31.5864C82.6559 31.5727 82.6593 31.5589 82.6627 31.5451L82.6421 31.5727L82.6387 31.5761Z" fill="#6D6D6C"/>
<path d="M64.5643 28.5323C65.2693 28.5461 65.8918 29.0011 66.1257 29.6698C66.1394 29.7112 66.1532 29.7491 66.167 29.7905C66.2117 29.7319 66.2564 29.6733 66.3011 29.6216C66.8342 29.0114 67.6389 28.6805 68.5709 28.6805H68.736C70.0085 28.7357 71.2947 28.7943 72.5638 28.8598C73.1484 28.8873 73.6815 29.2148 73.967 29.7284H74.022C74.2696 29.5182 74.5551 29.3561 74.8611 29.2493V29.2355C74.8818 29.1148 74.899 28.9942 74.9127 28.8735V28.8494C74.9368 28.6391 74.9506 28.4289 74.954 28.222V28.091C74.954 28.0497 74.954 27.9669 74.9471 27.9049V27.8394C74.9471 27.7842 74.9471 27.7291 74.9334 27.6739C74.9196 27.6188 74.9196 27.5602 74.9093 27.505C74.899 27.4499 74.8955 27.4119 74.8852 27.3637C74.8749 27.3154 74.8715 27.2913 74.8646 27.2568C74.8577 27.2223 74.8405 27.15 74.8267 27.1051C74.813 27.0603 74.782 26.9535 74.758 26.8811C74.758 26.8673 74.7476 26.8501 74.7442 26.8363C74.7304 26.7915 74.7167 26.7466 74.6961 26.7018C74.641 26.5639 74.5791 26.4329 74.5069 26.302C74.4312 26.171 74.3521 26.0469 74.2627 25.9262C74.2386 25.8917 74.2111 25.8573 74.1836 25.8262C74.1183 25.7435 74.0495 25.6642 73.9773 25.5849C73.9498 25.5539 73.9222 25.5229 73.8947 25.4953C73.7984 25.3988 73.6987 25.3092 73.5887 25.2264C73.0969 24.8576 72.5122 24.6301 71.9035 24.5611C71.7384 24.5404 71.5733 24.5301 71.4082 24.5267C70.9302 24.5853 70.7135 24.5646 70.3421 24.6508C69.7093 24.799 69.0971 25.023 68.5228 25.323C67.608 25.8331 66.9855 26.5329 67.0715 27.6567C67.1058 28.0979 66.9339 28.0841 66.5728 28.0255C66.4077 27.998 66.2495 27.9807 66.0947 27.9669L65.9503 27.9566C65.8471 27.9566 65.7439 27.9428 65.6442 27.9428H65.4929C65.4 27.9428 65.314 27.9428 65.2246 27.9531C65.1799 27.9531 65.1318 27.9532 65.0905 27.9635C64.9976 27.9738 64.9048 27.9842 64.8188 27.998L64.726 28.0118C64.6125 28.0324 64.5058 28.06 64.4027 28.0876L64.3201 28.1152C64.2479 28.1393 64.1757 28.1634 64.1103 28.191L64.0037 28.2393C63.9487 28.2634 63.9006 28.291 63.8524 28.3186L63.7492 28.3772C63.7045 28.4047 63.6633 28.4323 63.622 28.4633L63.5566 28.5081L64.5678 28.5392L64.5643 28.5323Z" fill="#6D6D6C"/>
<path d="M34.2595 13.9162C34.1701 14.223 33.864 14.2541 33.637 14.3747C31.5873 15.4089 30.5899 17.1152 30.4179 19.3628C30.0328 19.3352 29.6407 19.3076 29.283 19.4765C28.8119 19.6972 28.7396 19.4041 28.7465 19.0629C28.8222 15.7743 31.2777 13.6405 34.256 13.9128L34.2595 13.9162Z" fill="#6D6D6C"/>
<path d="M22.1604 28.1876C21.93 28.384 20.9636 29.4561 20.7676 29.6802C21.3213 29.6802 21.9335 29.6526 22.4218 29.625C22.5559 29.6561 22.6866 29.6974 22.8173 29.7457C23.0959 29.5182 23.4398 29.3803 23.7975 29.3562C25.517 29.2321 27.2641 29.1183 28.994 29.0183H29.0972C29.221 29.0183 29.3414 29.0321 29.4618 29.0597C29.6096 29.008 29.7644 28.977 29.9192 28.9666C30.834 28.9184 31.7522 28.8667 32.6705 28.8218H32.7565C33.0694 28.8218 33.3755 28.9115 33.6438 29.0769C33.7641 29.1045 33.8845 29.1355 34.0049 29.1631C34.3144 29.2286 34.6205 29.3182 34.9197 29.4251C35.0538 29.4734 35.188 29.5044 35.3186 29.563C35.4493 29.6216 35.5731 29.6871 35.7073 29.7353C35.7795 29.7629 35.8586 29.7905 35.9342 29.825C36.0099 29.8594 36.0959 29.8801 36.1784 29.9111C36.2025 29.8388 36.23 29.7595 36.2541 29.6905C36.3401 29.4458 36.4845 29.2252 36.6702 29.0459C36.5808 28.9321 36.4845 28.8184 36.3882 28.6874C35.9308 28.0566 34.6514 28.3703 34.2112 28.2048C34.3454 28.2048 35.5215 27.8773 35.6591 27.867C35.494 27.5464 35.1914 27.5946 34.9059 27.5602C34.2044 27.4912 33.5234 27.6395 32.8287 27.7636C32.8837 27.636 32.9766 27.5326 33.0969 27.4568C33.6816 27.15 34.3041 26.9293 34.9678 26.9983C35.5078 27.05 35.6832 26.7708 35.752 26.3157C35.979 24.7749 34.5414 23.8614 33.4099 24.3198C33.3102 24.3681 33.2001 24.4026 33.0866 24.4163C32.9594 24.4163 32.9215 24.3026 32.9525 23.9579C33.1038 21.438 31.2536 20.4452 30.5382 20.2211C30.4901 20.2108 30.4454 20.1936 30.3938 20.1832C30.3422 20.1729 30.3044 20.1729 30.2596 20.166L30.1083 20.1487C29.9948 20.135 29.8813 20.1315 29.7678 20.1315H29.6062C29.5512 20.1315 29.4721 20.1315 29.4033 20.1487C29.307 20.1625 29.2107 20.1798 29.1144 20.2039V20.2177L29.1006 20.2039C28.9321 20.2487 28.7671 20.3073 28.6123 20.3866L28.5573 20.4176C28.4335 20.4831 28.3165 20.5624 28.2065 20.6486C28.1686 20.6762 28.1377 20.7072 28.0999 20.7382C28.0139 20.8175 27.9348 20.9002 27.8591 20.9864L27.835 21.014C27.8041 21.0519 27.7697 21.0864 27.7422 21.1243C27.6768 21.2139 27.6184 21.3104 27.5633 21.407C27.5255 21.4656 27.4842 21.5173 27.4533 21.5828C27.4327 21.6276 27.4155 21.6758 27.3983 21.7241C27.3845 21.7655 27.3742 21.8068 27.3604 21.8482C27.3604 21.862 27.3501 21.8758 27.3467 21.8896C27.3329 21.924 27.3192 21.9551 27.302 21.9826C27.2951 21.9964 27.2882 22.0102 27.2779 22.0206C27.2504 22.0619 27.2126 22.0998 27.1713 22.1274C27.0922 21.4966 27.3157 20.8658 27.7731 20.4245C27.8797 20.3142 28.0551 20.2177 28.0001 20.0488C27.9313 19.8316 27.7112 19.9074 27.5427 19.904C27.3914 19.9005 27.2366 19.904 27.0853 19.9247L26.9753 19.9385C26.676 19.9764 26.3837 20.0522 26.1017 20.1556L25.9951 20.197C25.8541 20.2522 25.7165 20.3177 25.5824 20.3866C25.4689 20.4486 25.3554 20.5176 25.2454 20.59L25.1456 20.6589C25.07 20.7106 24.9943 20.7658 24.9255 20.8209L24.8189 20.9071C24.7501 20.9657 24.6848 21.0278 24.616 21.0933L24.5266 21.1794C24.4372 21.2725 24.3512 21.369 24.2721 21.4656C24.1311 21.6414 24.0073 21.831 23.9006 22.0275C23.8284 22.1584 23.77 22.2963 23.7149 22.4377C23.7012 22.4721 23.6874 22.5066 23.6771 22.5411C23.6255 22.6824 23.5877 22.8272 23.5567 22.9754C23.3882 23.8269 23.0993 24.8093 24.0451 25.5022C24.0692 25.5194 24.0898 25.5436 24.1104 25.5677L24.1242 25.5884C24.1414 25.616 24.1517 25.647 24.1517 25.678C24.1517 25.7056 24.1483 25.7297 24.1379 25.7538C24.0967 25.8538 24.0176 25.8745 23.911 25.8883C23.2059 25.9779 22.7967 26.4812 22.979 27.1327C23.089 27.5257 22.979 27.705 22.6454 27.8566C22.47 27.9428 22.3049 28.0497 22.1604 28.1807V28.1876Z" fill="#6D6D6C"/>
<path d="M49.2667 21.7517C49.5728 21.538 49.5212 21.3863 49.2839 21.1725C48.2177 20.2004 46.4053 20.6762 45.9754 22.0481C45.9204 22.217 45.8551 22.4377 46.1199 22.448C46.9969 22.4894 47.3614 23.0409 47.5162 23.8062C47.5746 24.0889 47.7019 24.144 47.9942 24.1406C48.572 24.1199 49.1463 24.2509 49.6588 24.5198C50.7696 25.1299 51.3887 26.0951 51.6775 27.2706C51.7807 27.6946 51.9183 27.7049 52.2588 27.5636C52.6474 27.4016 53.0601 27.2809 53.4934 27.3947C53.686 27.4464 53.772 27.3464 53.8511 27.1948C54.1056 26.7122 54.5148 26.3295 55.0101 26.1089C55.4228 25.9159 55.3265 25.7021 54.9963 25.5711C54.4633 25.3609 53.9096 25.1678 53.3662 25.5711C53.232 25.6711 53.0979 25.7607 52.981 25.5711C52.5889 24.9334 52.0386 24.6887 51.1651 25.0127C51.8908 24.3474 52.2794 24.3095 52.7953 24.799C53.0119 25.0058 53.1805 25.0196 53.4521 24.9369C54.195 24.7059 54.9963 24.7576 55.7048 25.0748C56.2619 25.3161 56.6746 25.7538 57.218 26.0158C57.5241 26.1675 57.5619 26.1158 57.5998 25.8262C57.6892 25.1782 57.9265 24.6025 58.4699 24.1854C58.5593 24.1164 58.6487 24.0509 58.5971 23.9027C58.463 23.5063 57.4553 22.7858 57.0323 22.8341C56.2585 22.8996 55.4847 22.7134 54.8312 22.2998C54.2879 21.9826 54.3498 21.4173 54.1881 20.945C53.882 20.0832 53.3455 19.6799 52.417 19.6696C51.423 19.6558 50.7043 20.1108 50.4016 20.9106C50.2778 21.2346 50.3466 21.3311 50.6939 21.2829C51.2786 21.2001 51.282 21.2105 51.6913 21.469C50.4704 21.569 49.4318 21.9551 48.5617 22.7651C48.6339 22.2894 48.9228 21.9861 49.2701 21.7482L49.2667 21.7517Z" fill="#E51F1F"/>
<path d="M47.135 6.45311C47.6131 5.44308 48.3628 4.58474 49.2982 3.97803C51.3617 2.60261 53.5525 2.68879 55.7501 3.5885C57.2977 4.21934 58.4258 5.2983 58.9107 6.96673C59.0242 7.35627 59.0448 7.62859 58.5702 7.75614C58.4189 7.7975 58.1816 7.83198 58.1437 8.11809C58.9932 8.00089 59.767 8.13188 60.4101 8.88337C60.4961 8.49728 60.3104 8.1043 59.9631 7.9216C59.571 7.66996 59.6982 7.53552 60.025 7.39074C60.4961 7.15288 61.0498 7.14944 61.5244 7.3804C62.2879 7.75614 62.5906 8.44902 62.8279 9.19706C63.1099 9.2729 63.2268 9.1419 63.2303 8.87302C63.2474 8.18014 63.0686 7.56654 62.4461 7.18391C61.6207 6.67717 60.7678 6.48758 59.9218 7.13565C59.6742 7.32524 59.5744 7.30456 59.5228 6.98397C59.3956 6.32211 59.1308 5.69473 58.7422 5.14663C56.5824 1.90283 51.9739 1.38231 48.8855 3.36788C47.675 4.14695 47.1213 5.35346 46.7773 6.69096C47.0422 6.66338 47.0387 6.65994 47.135 6.45655V6.45311Z" fill="#E51F1F"/>
<path d="M63.8524 9.46249C64.5024 9.21774 65.2039 9.15914 65.8849 9.29358C67.7455 9.61761 68.1272 12.596 67.4084 13.7232C67.2571 13.968 67.1161 13.8749 66.9373 13.7542C66.5762 13.5198 66.2047 13.2958 65.6166 13.2647C66.1566 13.7232 66.6106 14.0989 67.0405 14.4988C67.4704 14.8987 67.5563 15.5261 67.7524 16.0949C68.0447 15.8777 67.9518 15.6157 68.0103 15.402C68.0997 15.0883 68.0481 14.7436 68.478 14.5609C69.723 14.0197 71.1812 14.4333 71.955 15.5502C72.605 16.5223 72.7632 17.6013 72.6669 18.7492C72.6394 19.056 72.4915 19.3766 72.6291 19.6972C73.028 19.1491 73.1312 18.4906 73.255 17.8633C73.7674 15.2089 71.6248 13.1648 69.0111 13.8025C68.6878 13.8818 68.3714 13.9955 67.9828 14.1093C68.0481 13.9576 68.0722 13.8956 68.1066 13.8301C68.9836 12.303 68.8323 11.0137 67.5563 9.62796C66.6243 8.61793 65.2693 8.63862 63.8558 9.13156C63.5497 9.23843 63.5738 9.33839 63.8524 9.45904V9.46249Z" fill="#E51F1F"/>
<path d="M60.3504 11.5618C60.4708 11.5894 60.5396 11.4515 60.5843 11.3412C60.7735 10.8586 61.083 10.9275 61.3959 11.1895C61.6539 11.4033 61.7467 11.3998 61.9256 11.0689C62.3383 10.3036 62.8851 10.0864 63.5695 10.3415C63.8549 10.4656 64.1335 10.607 64.4052 10.7621C64.529 10.5208 64.2711 10.4277 64.2917 10.2553C64.2023 10.2209 64.1197 10.1795 64.0372 10.1312C63.2153 9.55212 62.7063 9.58314 61.9737 10.2726C61.8396 10.4001 61.7192 10.5139 61.5266 10.4243C61.0692 10.1933 60.7184 10.4243 60.3745 10.6931C60.2232 10.9241 59.9549 10.9448 59.7417 11.0585C59.2981 11.286 58.9989 11.7238 58.9473 12.2202C59.3944 11.8962 59.7211 11.4067 60.3573 11.5618H60.3504Z" fill="#E51F1F"/>
<path d="M43.9893 8.14222C45.4028 7.81129 45.8878 8.21116 45.7777 9.66932C45.7468 10.0761 45.9084 10.0037 46.1732 9.97612C47.1706 9.85202 47.4663 10.1106 47.4423 11.0654C47.5661 11.2137 47.7208 11.3274 47.8997 11.4033C48.1266 11.5239 48.2058 11.4343 48.2229 11.1999C48.3158 10.214 47.5007 9.3246 46.5446 9.4487C46.1216 9.50386 46.2214 9.34529 46.2626 9.08675C46.3796 8.38697 46.2076 8.11809 45.5748 7.8044C44.942 7.49071 44.3849 7.67685 43.8415 8.02847C43.8277 8.04225 43.814 8.05604 43.8002 8.06983C43.7899 8.08707 43.783 8.1112 43.7899 8.12499C43.8415 8.21806 43.9171 8.1629 43.9893 8.14567V8.14222Z" fill="#E51F1F"/>
<path d="M53.6244 13.7611C53.6932 13.5819 53.7689 13.4061 53.8239 13.2234C54.2125 11.972 53.2943 10.9172 52.008 11.1413C51.7501 11.1964 51.4956 11.2688 51.2446 11.3515C51.2136 11.4653 52.9229 11.2929 53.3252 13.0027C53.4009 13.2647 53.339 13.5853 53.6244 13.7646V13.7611Z" fill="#E51F1F"/>
<path d="M43.3168 14.0886C44.3932 13.6094 45.9615 13.8473 46.6871 14.6333C47.7705 15.8018 49.0842 16.443 50.6903 16.4361L51.4057 16.2741C51.2853 16.0569 51.0893 16.1224 50.9311 16.0949C49.5726 15.8673 48.2829 15.5157 47.2924 14.4437C46.302 13.3716 45.0604 12.9338 43.6022 13.4543C43.2858 13.6991 42.8628 13.837 42.7012 14.292C42.9694 14.3402 43.1276 14.1713 43.3099 14.0886H43.3168Z" fill="#E51F1F"/>
<path d="M58.8237 17.8667C58.8924 17.9219 58.9681 17.8771 59.0266 17.8219C59.3877 17.4703 59.7901 17.5082 60.1924 17.7323C60.4091 17.8529 60.4985 17.8288 60.6223 17.5909C61.2964 16.3258 62.5723 15.8742 63.9067 16.3982C64.0718 16.4637 64.2334 16.6464 64.4295 16.4534C63.4528 15.6881 61.826 15.6295 60.7599 16.3155C60.4125 16.8015 60.0824 17.2841 59.3498 17.1704C59.085 17.129 58.9028 17.3634 58.7927 17.6047C58.7411 17.6909 58.7549 17.8012 58.8271 17.8736L58.8237 17.8667Z" fill="#E51F1F"/>
<path d="M24.978 57.5437C24.9918 57.5989 25.009 57.654 25.0262 57.7092C42.6622 52.5729 61.3952 52.5729 79.0312 57.7092V49.0912C61.3196 44.3686 42.6828 44.3755 24.9746 49.105V57.5506L24.978 57.5437Z" fill="#E51F1F"/>
<path d="M84.5457 55.8408C83.7375 55.7305 82.9293 55.6133 82.128 55.4685C81.6981 55.3892 81.5983 55.5237 81.6086 55.9511C81.6396 57.1335 81.5571 58.3193 81.6396 59.4914C81.6981 60.298 81.3817 60.7875 80.7832 61.2494C79.5864 62.156 78.3105 62.9592 76.9727 63.6418C78.2176 63.8865 79.325 64.1278 80.4393 64.3174C81.8666 64.5656 83.2801 64.9172 84.7348 64.962C84.7658 64.7862 84.7417 64.607 84.666 64.445C84.3049 63.2384 83.9645 62.0285 83.5999 60.8289C83.4933 60.5117 83.4933 60.167 83.6102 59.8499C84.0229 58.6813 84.3944 57.5023 84.8002 56.3372C84.8965 56.0476 84.8999 55.8856 84.5457 55.8374V55.8408Z" fill="#E51F1F"/>
<path d="M78.6781 59.643C76.9001 59.2466 75.1496 58.8674 73.4093 58.4572C73.0345 58.371 73.0173 58.5261 73.0207 58.8122C73.0276 59.843 73.0207 60.8737 73.0207 61.9147C72.7765 61.9147 72.6802 61.7699 72.5633 61.6768C71.9133 61.1219 71.0467 60.8943 70.2109 61.0667C70.8369 61.6458 71.4559 62.2284 72.0784 62.811C74.9157 62.0009 77.7289 60.7392 78.6816 59.643H78.6781Z" fill="#E51F1F"/>
<path d="M23.0469 60.8564C22.7752 60.6462 22.6273 60.3118 22.6548 59.9705C22.672 58.5951 22.6548 57.2197 22.6652 55.8373C22.6652 55.503 22.6514 55.341 22.2181 55.4306C21.3239 55.6133 20.4125 55.7201 19.5046 55.8339C19.1469 55.8787 19.0884 56.0235 19.1985 56.351C19.6009 57.5196 19.962 58.6951 20.3678 59.8637C20.4779 60.1808 20.4847 60.529 20.3816 60.8495C20.0067 62.2112 19.5114 63.5383 19.2226 64.9276L19.2054 65.0206L19.2845 64.9896C20.5329 64.8827 21.771 64.6828 22.9919 64.3932C24.3744 64.2312 25.726 63.9072 27.1739 63.59L24.7802 62.2146L23.0435 60.8564H23.0469Z" fill="#E51F1F"/>
<path d="M31.1462 61.9974V58.3986C29.946 58.695 28.787 58.8571 27.6693 59.2052C27.4457 59.1604 27.26 59.2742 27.0605 59.3397C26.5722 59.4086 26.0941 59.5396 25.6367 59.7223C26.7751 60.7806 29.4335 61.9699 31.9854 62.7558C32.5941 62.1801 33.2097 61.6079 33.8288 61.0322C33.0378 60.9495 32.2055 61.2701 31.1462 61.9974Z" fill="#E51F1F"/>
<path d="M52.1248 78.2199L45.8105 72.0287L52.1214 82.5874L58.4322 72.0287L52.1248 78.2199Z" fill="#E51F1F"/>
<path d="M63.2781 62.7937L61.7442 63.752L60.9051 62.1215L62.5971 61.4631C62.4458 61.0805 62.291 60.6978 62.1397 60.3152L60.4511 60.9667L59.9558 59.219L61.7614 58.8674C61.6823 58.4572 61.6101 58.0608 61.5344 57.6437L59.7289 57.9849C59.6842 57.4368 59.6394 56.8956 59.5947 56.3475C59.1855 56.3199 58.7728 56.2924 58.3635 56.2682C58.422 56.9197 58.4804 57.5609 58.5424 58.2193L56.7402 58.5606C56.8159 58.9674 56.8916 59.3672 56.9672 59.7843L58.7762 59.4465C58.9516 60.1049 59.1236 60.7565 59.299 61.4321L57.6138 62.0733L58.0712 63.2212L59.7632 62.58C60.0693 63.1902 60.3651 63.79 60.6781 64.4139L59.1373 65.3964C59.3506 65.7411 59.5638 66.0789 59.7839 66.434L61.3693 65.4515C61.7064 65.91 62.0365 66.3547 62.3667 66.8062C62.6728 66.5132 62.9651 66.2099 63.2471 65.8893L62.4011 64.7965L63.9246 63.8348L63.2781 62.7937Z" fill="#E51F1F"/>
<path d="M44.4986 59.4052L46.3007 59.743C46.3798 59.35 46.452 58.9674 46.5414 58.5744L44.7324 58.2297C44.7909 57.5885 44.8494 56.9646 44.9078 56.3234C44.4951 56.351 44.0859 56.3855 43.6732 56.4199C43.6319 56.9439 43.5906 57.461 43.5459 57.9953L41.7404 57.6506C41.6647 58.0608 41.589 58.4572 41.5099 58.8743L43.3121 59.2259L42.8203 60.9736L41.1282 60.3221C40.9769 60.7082 40.8221 61.0874 40.6708 61.47L42.3629 62.1284C42.0808 62.6765 41.8092 63.2109 41.5237 63.759L39.9898 62.8006L39.3398 63.8348L40.8737 64.7966L40.0277 65.8928C40.3097 66.2065 40.6055 66.5133 40.9115 66.8097L41.9055 65.4584L43.4943 66.4374L44.1409 65.4067L42.6002 64.4243C42.9062 63.8141 43.202 63.2178 43.515 62.5904C44.0618 62.7972 44.6258 63.0075 45.207 63.2281L45.6644 62.0836L43.9793 61.4425L44.4951 59.4155L44.4986 59.4052Z" fill="#E51F1F"/>
<path d="M87.9898 6.77714C86.2427 6.42553 84.4097 5.90156 80.0694 5.87398C76.7988 5.68439 73.4869 6.0946 70.2541 6.70475C70.0787 6.73922 69.8139 6.68407 69.752 6.89434C69.6901 7.10462 69.9274 7.21493 70.0581 7.35282C70.5361 7.90437 71.0142 8.45936 71.506 9.00057C71.7776 9.30737 71.7364 9.41768 71.3306 9.50041C70.5052 9.67277 69.6935 9.88994 68.875 10.0933C69.1811 10.8241 69.4665 11.5584 69.384 12.3754C69.3186 12.9958 69.3978 13.0648 69.9927 12.9338C70.2163 12.8855 70.4364 12.8062 70.6599 12.7476L75.8427 11.4584L76.1832 11.3067C76.1832 11.3067 75.2099 10.2381 74.9107 9.97957C74.5358 9.65208 74.1713 9.30737 73.7999 8.96954C73.3493 8.55933 73.3528 8.5283 73.9134 8.3456C76.5202 7.48381 79.2131 7.10462 81.9403 6.9426C82.6866 6.89779 87.0441 7.02189 87.7869 6.97018C87.8901 6.97708 88.148 7.07015 87.9933 6.77714H87.9898Z" fill="#E51F1F"/>
<path d="M22.7563 22.0033C22.7563 22.0033 24.2902 19.4731 27.9047 19.1594C27.9047 19.1594 28.2933 17.784 28.3346 17.453L25.7656 18.1804L26.4431 14.9642C26.4431 14.9642 17.0542 18.5837 13.5703 21.8896C13.5703 21.8896 19.9499 19.0353 23.9153 18.1804L22.7597 22.0033H22.7563Z" fill="#E51F1F"/>
<path d="M70.3393 24.1371C70.6935 24.0923 71.0512 24.0751 71.4054 24.082C71.3882 23.9027 71.3538 23.7269 71.3023 23.558C71.2885 23.5063 71.2747 23.4511 71.2541 23.4063C71.2335 23.3615 71.206 23.296 71.1819 23.2409C71.1578 23.1857 71.1337 23.1374 71.1062 23.0892C71.0787 23.0409 71.0478 22.9927 71.0168 22.9444C70.9859 22.8961 70.948 22.8444 70.9102 22.7927C70.8724 22.741 70.8449 22.71 70.807 22.6721C70.7692 22.6342 70.7142 22.5756 70.666 22.5307C70.6316 22.4963 70.5938 22.4618 70.556 22.4308C70.4941 22.3825 70.4322 22.3342 70.3668 22.2929C70.3324 22.2688 70.298 22.2446 70.2636 22.2239C70.157 22.1584 70.0435 22.0998 69.93 22.0481C69.7443 21.9688 69.5517 21.8965 69.3591 21.8379C68.7814 21.6655 68.1761 21.6 67.5742 21.6414C68.1107 21.8723 68.5681 22.2377 69.1459 22.4308C69.9816 22.7134 70.2946 23.365 70.3427 24.144L70.3393 24.1371Z" fill="#E51F1F"/>
<path d="M82.1768 65.0137C82.1768 65.0137 82.1768 64.9861 82.1699 64.9724H82.2112L82.1768 65.0137Z" fill="#010101"/>
<path d="M69.748 6.9633C69.748 7.10118 69.8822 7.20115 69.9888 7.30112C69.8753 7.1977 69.7515 7.09774 69.748 6.9633Z" fill="#010101"/>
<path d="M70.25 6.70476C70.4942 6.6565 70.7418 6.61513 70.986 6.57032C70.7315 6.61513 70.4907 6.65994 70.25 6.70476Z" fill="#010101"/>
<path d="M70.082 9.78653C70.4913 9.68656 70.9006 9.58659 71.3132 9.50386C71.3648 9.49352 71.4095 9.48318 71.4474 9.46939C71.4061 9.48318 71.3614 9.49352 71.3132 9.50386C70.9006 9.59004 70.4879 9.68656 70.082 9.78653Z" fill="#010101"/>
<path d="M28.8379 51.8111C29.2368 51.7283 29.6358 51.649 30.0313 51.5698V52.2523C29.6323 52.3281 29.2334 52.4109 28.8379 52.4936V51.8111Z" fill="#010101"/>
<path d="M34.2239 49.9599V50.5804C34.2239 51.3457 33.9006 51.8111 33.2403 51.9214L32.9342 51.9731V53.769L32.2773 53.8828V49.105C32.6006 49.0499 32.9239 48.9913 33.2472 48.9396C33.8972 48.8292 34.2239 49.1946 34.2239 49.9599ZM32.9308 49.6738V51.2871L33.2369 51.2319C33.4467 51.1975 33.5601 51.0699 33.5601 50.7286V50.0116C33.5601 49.6704 33.4467 49.5807 33.2369 49.6152L32.9308 49.6704V49.6738Z" fill="#010101"/>
<path d="M36.3145 49.6152C36.3145 48.8499 36.6687 48.3639 37.3187 48.2812C37.9687 48.1984 38.3229 48.588 38.3229 49.3498V51.8352C38.3229 52.6005 37.9687 53.0796 37.3187 53.1624C36.6687 53.2451 36.3145 52.8556 36.3145 52.0937V49.6187V49.6152ZM36.9748 52.0593C36.9748 52.4005 37.1055 52.5177 37.3187 52.4833C37.5319 52.4488 37.6626 52.3109 37.6626 51.9696V49.3877C37.6626 49.0464 37.5285 48.9292 37.3187 48.9602C37.1089 48.9913 36.9748 49.1361 36.9748 49.4773V52.0593Z" fill="#010101"/>
<path d="M41.1531 49.2188V52.6763L40.5547 52.7349V47.9571L41.387 47.8778L42.0679 50.6735V47.8158C42.2674 47.7985 42.4634 47.7813 42.6595 47.7641V52.5418C42.4325 52.5625 42.202 52.5798 41.9751 52.6004C41.6999 51.4732 41.4248 50.3426 41.1497 49.2153L41.1531 49.2188Z" fill="#010101"/>
<path d="M44.7637 47.6193C45.4481 47.5745 46.1325 47.5366 46.8203 47.5055V48.1881L46.1221 48.2225V52.3178C45.902 52.3281 45.6785 52.3419 45.4584 52.3557V48.2605C45.228 48.2743 44.9941 48.288 44.7637 48.3018V47.6193Z" fill="#010101"/>
<path d="M49.5949 49.4222L50.5097 49.4084V50.0909C50.2037 50.0909 49.901 50.1013 49.5949 50.1047V51.5043C49.9767 51.4939 50.3584 51.4905 50.7436 51.487V52.1696C50.1349 52.1765 49.5296 52.1902 48.9277 52.204V47.4262C49.5365 47.409 50.1418 47.3987 50.7436 47.3918V48.0778C50.3619 48.0778 49.9801 48.0881 49.5949 48.095V49.4222Z" fill="#010101"/>
<path d="M53.9828 51.3009C54.1514 50.0047 54.3233 48.7086 54.4918 47.4125L55.1006 47.4262C54.8839 49.0119 54.6672 50.5976 54.4471 52.1868C54.1135 52.1868 53.7834 52.173 53.4532 52.1696L52.8066 47.3849H53.4773C53.6389 48.6914 53.8074 49.9944 53.9794 51.2974L53.9828 51.3009Z" fill="#010101"/>
<path d="M57.8903 49.5497L58.8051 49.6014V50.2839C58.4991 50.2667 58.1964 50.2495 57.8903 50.2322V51.6318C58.2755 51.6525 58.6573 51.6732 59.039 51.6973V52.3798C58.4337 52.3419 57.8319 52.3109 57.2266 52.2833V47.5055C57.8353 47.5331 58.4406 47.5641 59.039 47.602V48.2846C58.6573 48.2605 58.2755 48.2398 57.8903 48.2191V49.5497Z" fill="#010101"/>
<path d="M61.2637 47.7641L62.3161 47.8537C62.9798 47.9157 63.3065 48.3639 63.3065 49.1291V51.5456C63.3065 52.3109 62.9798 52.6935 62.3161 52.6315C61.9653 52.6004 61.6145 52.5694 61.2637 52.5418V47.7641ZM61.9274 48.5018V51.9145L62.3023 51.9489C62.5121 51.9662 62.6393 51.8559 62.6393 51.5146V49.0326C62.6393 48.6914 62.5121 48.5569 62.3023 48.5362L61.9274 48.5018Z" fill="#010101"/>
<path d="M66.9216 53.1451C66.8666 52.9521 66.8459 52.7521 66.8597 52.5522V51.8007C66.8597 51.356 66.729 51.1733 66.4264 51.1354L66.1994 51.1078V53.052L65.5391 52.9727V48.195L66.5364 48.3191C67.2208 48.4087 67.5166 48.812 67.5166 49.5428V49.9185C67.5166 50.408 67.379 50.7114 67.0832 50.8355C67.4134 51.0389 67.5235 51.4146 67.5235 51.9041V52.6418C67.5131 52.8418 67.5372 53.0417 67.5957 53.2313L66.9216 53.1451ZM66.1994 48.9568V50.4253L66.4573 50.4563C66.7049 50.4873 66.8528 50.3839 66.8528 49.9978V49.5256C66.8528 49.1843 66.7496 49.0188 66.5158 48.9913L66.1959 48.9533L66.1994 48.9568Z" fill="#010101"/>
<path d="M71.8858 53.9138L71.222 53.8001L71.1085 52.9141C70.8403 52.8693 70.5686 52.8211 70.3003 52.7797C70.2625 53.0624 70.2247 53.345 70.1869 53.6277C69.9839 53.5932 69.7845 53.5622 69.5781 53.5312C69.8017 51.9731 70.0252 50.4149 70.2488 48.8603L71.2152 49.0119C71.4353 50.6493 71.6623 52.2833 71.8892 53.9138H71.8858ZM70.3829 52.142L71.0157 52.2488C70.9125 51.425 70.8093 50.6011 70.6993 49.7807C70.5927 50.5701 70.4861 51.356 70.3829 52.1454V52.142Z" fill="#010101"/>
<path d="M73.9648 51.5698C74.3638 51.6456 74.7593 51.7283 75.1582 51.8111V52.4936C74.7593 52.4109 74.3603 52.3316 73.9648 52.2523V51.5698Z" fill="#010101"/>
<path d="M79.3696 34.0236C79.3214 33.8202 79.2354 33.6996 79.0497 33.6789C78.6955 33.6375 78.3378 33.5962 77.9836 33.5548C77.7944 33.5341 77.7669 33.6375 77.8116 33.8375C78.5786 37.0744 79.3421 40.3113 80.1055 43.5447C80.164 43.786 80.2259 43.886 80.4667 43.9515C80.8381 44.0549 81.2095 44.1618 81.5809 44.2686C81.8217 44.3376 81.8423 44.2617 81.7839 44.0135C80.9791 40.6836 80.1743 37.357 79.3696 34.0271V34.0236Z" fill="#010101"/>
<path d="M56.7937 32.1553C56.3329 32.1449 55.8686 32.138 55.4043 32.1311C55.4731 33.7513 55.5419 35.3749 55.6072 36.9951C56.0921 37.0089 56.577 37.0227 57.062 37.0399C57.3027 37.0502 57.3405 36.9847 57.3302 36.7952C57.2374 35.3301 57.1479 33.8651 57.0585 32.4C57.0482 32.2449 56.9863 32.1587 56.7971 32.1553H56.7937Z" fill="#010101"/>
<path d="M63.6348 39.3599C64.0922 39.4047 64.5496 39.4529 65.007 39.5046C64.5633 37.9327 64.13 36.3712 63.707 34.8199C63.6967 36.3401 63.6726 37.8534 63.6348 39.3599Z" fill="#010101"/>
<path d="M19.564 34.4235L18.2468 34.6165L16.627 41.0662C17.0809 40.9421 17.5383 40.8215 17.9992 40.7008C18.209 40.6456 18.2949 40.5319 18.3603 40.2561L19.7325 34.7544C19.7875 34.5338 19.7497 34.3959 19.564 34.42V34.4235Z" fill="#010101"/>
<path d="M38.5498 34.9371C38.0855 36.5366 37.6075 38.1464 37.1191 39.7701C37.5765 39.7115 38.034 39.6529 38.4914 39.5977C38.5017 38.0534 38.5189 36.5021 38.5498 34.9371Z" fill="#010101"/>
<path d="M44.8763 12.2271C45.093 12.4753 44.9004 12.5339 44.7113 12.627C44.2882 12.8269 43.7964 12.9441 43.6073 13.4543C45.0655 12.9304 46.2864 13.3475 47.2975 14.4437C48.3052 15.5364 49.5777 15.8674 50.9361 16.0949C51.0875 16.1224 51.2904 16.0569 51.4107 16.2741L50.6954 16.4361C50.2964 16.7085 49.7427 16.6809 49.4229 17.1049C49.8769 17.0463 50.324 16.9636 50.7676 16.8532C51.483 16.6464 52.2361 16.5154 52.9446 16.8808C53.3676 17.098 53.7081 17.2393 53.9729 16.6843C54.021 16.5809 54.1827 16.5223 54.3065 16.4706C54.9565 16.1983 55.4483 16.5568 55.9401 16.9015C56.2152 17.0945 56.3872 17.4496 56.7861 17.4565C57.8213 17.3048 58.8427 17.1221 59.8091 16.6912C60.1152 16.5533 60.3732 16.2741 60.7515 16.3155C61.8176 15.6295 63.4478 15.6915 64.4211 16.4534H64.5861C63.9533 15.1297 62.7909 15.1331 61.4943 15.2986C61.8967 14.4988 62.3954 13.9231 63.1864 13.6508C63.9774 13.3785 64.4211 13.9576 64.9472 14.4368C64.9163 14.0921 64.8062 13.7577 64.6308 13.4612C63.9464 12.0961 63.1898 11.8238 61.8245 12.496C60.5107 13.1337 59.2864 13.9473 58.1927 14.9194C57.7147 15.3503 57.1541 15.695 56.6554 16.1155C56.2359 16.4672 55.9539 15.9949 55.634 15.8501C55.3142 15.7053 55.5893 15.4882 55.6615 15.3124C55.9848 14.5298 55.8128 13.9852 55.0528 13.4268C54.4853 13.3888 54.2446 13.213 54.5438 12.5822C54.7192 12.2513 54.733 11.8548 54.5782 11.5136C54.1827 11.0551 53.6462 10.7414 53.0546 10.6276C52.2121 10.4656 51.5139 10.7655 51.2422 11.3516C51.4933 11.2688 51.7478 11.1964 52.0057 11.1413C53.2919 10.9172 54.2068 11.972 53.8216 13.2234C53.7666 13.4061 53.6875 13.5853 53.6221 13.7611C54.1208 13.7784 54.616 13.7611 55.0253 14.1507C55.4345 14.5402 55.3486 14.9573 55.266 15.3882C55.1835 15.7984 54.8258 15.7467 54.5197 15.7501C54.2033 15.7329 53.9007 15.8777 53.715 16.1362C53.4467 16.543 53.2954 16.4568 53.0787 16.0949C52.2843 14.7436 51.2181 13.575 49.9491 12.6649C49.4848 12.3305 49.1718 11.9927 49.2234 11.355C49.2544 10.9655 49.134 10.5553 49.0343 10.1623C48.8073 9.2798 48.1126 8.74893 47.2046 8.81098C46.761 8.84201 46.5478 8.76272 46.4652 8.27667C46.3724 7.69754 45.798 7.28044 45.1687 7.21494C44.6012 7.17013 44.0681 7.49071 43.8377 8.01468C44.3777 7.66307 44.9348 7.47692 45.571 7.79062C46.2073 8.10086 46.3758 8.36974 46.2589 9.07297C46.2176 9.33151 46.1179 9.49008 46.5409 9.43492C47.497 9.31082 48.3121 10.2002 48.2192 11.1861C48.1986 11.4205 48.1263 11.5101 47.8959 11.3895C47.7171 11.3171 47.5623 11.1999 47.4385 11.0516C46.1351 10.4794 44.7113 10.2278 43.2909 10.3174C42.0184 10.4105 40.9007 10.8138 40.1406 11.9238C40.5464 11.9169 40.8525 11.6515 41.1964 11.4963C42.352 10.9655 44.075 11.2964 44.8798 12.2168L44.8763 12.2271ZM57.9692 15.9294C58.8427 15.3744 59.4721 14.4299 60.5898 14.261C60.6139 14.1782 60.7549 14.3471 60.6552 14.3713C60.1462 15.202 59.5615 15.9397 58.5195 16.1328C58.3613 16.1983 58.1893 16.2017 58.0277 16.1431C57.9486 16.088 57.8454 16.0018 57.9623 15.9294H57.9692ZM50.6507 14.8504C49.1409 14.3471 48.0128 13.6026 47.3044 12.1789C48.6663 12.7856 49.7531 13.5784 50.6472 14.8504H50.6507Z" fill="#010101"/>
<path d="M35.4035 16.5396C35.8506 14.6333 38.0138 14.616 38.9424 15.6226C39.4686 16.1948 39.7644 16.8739 39.981 17.5944C40.0739 17.9012 40.1564 18.008 40.49 17.9012C41.1607 17.6978 41.7763 17.7978 42.2956 18.3217C42.8424 18.8698 42.6292 19.4421 42.385 20.0246C42.8906 19.9281 43.1107 19.5317 43.2448 19.1077C43.6128 17.9529 42.4297 16.8153 41.1228 17.0877C40.6414 17.1911 40.5038 17.0773 40.3869 16.6292C40.0361 15.2641 39.3207 14.1679 37.78 14.0852C36.0467 13.999 34.7226 14.8952 35.2694 16.9773C35.3141 16.8291 35.3657 16.6843 35.4001 16.5361L35.4035 16.5396Z" fill="#010101"/>
<path d="M103.958 8.93204C103.566 5.63654 101.905 3.15802 99.0743 1.46201C97.1862 0.317546 94.937 -0.0719846 92.7772 0.379595C92.619 0.407173 92.4746 0.472669 92.3508 0.576084C90.6931 2.05492 89.0251 3.52342 87.3915 5.02639C86.15 4.66788 84.3203 4.33006 83.6222 4.17838C83.041 4.05084 82.4563 3.93708 81.8751 3.82677C79.2407 3.29591 76.5547 3.08563 73.8722 3.19939C71.2825 3.31314 68.6997 3.56479 66.1375 3.95432C65.1849 4.10599 64.1463 4.07152 63.5857 5.11257C63.4825 5.30216 63.3209 5.18496 63.1833 5.12291C62.7121 4.90574 62.21 4.76096 61.6976 4.69891C61.3021 4.65065 60.9341 4.59894 60.6211 4.11978C59.6272 2.572 58.2859 1.36893 56.532 0.693288C54.5717 -0.0926678 52.4119 -0.209872 50.3793 0.355465C48.8833 0.762232 47.5214 1.43443 46.5103 2.62715C46.1045 3.10286 45.7984 3.14768 45.2206 3.03737C43.4116 2.68231 41.6817 2.91327 40.4367 4.41279C39.8796 5.08499 39.2881 5.33664 38.473 5.52968C36.1137 6.09157 34.5248 7.51525 34.0743 10.011C34.0502 10.2627 33.892 10.4764 33.6582 10.5729C33.0082 10.859 32.3547 11.1417 31.7013 11.4209C31.5121 11.5036 31.3643 11.5381 31.2576 11.2692C30.8174 10.1696 30.3359 9.92483 29.2045 10.273C27.6431 10.7521 26.1367 11.3933 24.6304 12.0345L24.2521 12.1965C21.8137 9.86622 19.3547 7.56006 16.8751 5.27459C15.1555 3.68544 13.3981 2.13766 11.651 0.582979C11.5307 0.479564 11.3828 0.414067 11.2246 0.38649C9.06478 -0.0650903 6.81557 0.320994 4.92748 1.4689C2.09018 3.15802 0.432506 5.63654 0.0404424 8.93204C-0.0352189 9.56977 0.0198075 10.2213 0.0129292 10.8659C0.184887 11.7346 0.446263 12.4792 1.14785 13.1273C3.84415 15.6299 6.44415 18.2325 9.12669 20.749C9.56346 21.1557 10.0037 21.559 10.4404 21.9727C10.0759 22.4174 9.71822 22.8655 9.3743 23.324C8.70023 24.241 9.18859 25.382 10.2891 25.5681C10.8359 25.6612 11.3037 25.3854 11.768 25.1648C12.2322 24.9442 12.7103 24.7304 13.1883 24.5305C14.8563 26.068 16.5381 27.5916 18.2267 29.1049L18.2542 29.1325C18.151 29.3566 18.0719 29.591 18.0169 29.8323C17.4322 29.884 16.8441 29.9322 16.2664 29.9839C15.5579 30.0391 14.9629 30.5389 14.7772 31.2249L14.5846 31.9971L9.83515 50.991C9.81452 51.0669 9.80076 51.1462 9.79388 51.222C9.74229 51.7735 9.9796 52.3113 10.4198 52.6491C10.4645 52.6836 10.5127 52.7112 10.5608 52.7422C10.6055 52.7698 10.6502 52.7974 10.6949 52.8215C11.4894 53.28 13.601 54.3382 13.969 54.3693L16.4865 55.986C16.8545 57.1063 17.2156 58.2301 17.6248 59.3367C17.8896 60.0226 17.9034 60.781 17.6627 61.4773C17.0436 63.4353 16.4934 65.4209 15.8881 67.3858C15.7264 67.9098 15.8158 68.0097 16.3455 67.8925C16.8476 67.7822 17.3772 67.7857 17.8896 67.7167C21.5489 67.2031 25.1944 66.5792 28.7986 65.7415C27.2201 67.2272 25.6346 68.7095 24.0457 70.1918C22.4396 71.6879 20.8232 73.1736 19.1931 74.6456C19.0314 74.7559 18.8457 74.8145 18.6497 74.8214C17.9447 74.9144 17.1984 74.8662 16.5381 75.0868C14.4161 75.79 13.3053 77.5136 14.2407 79.7577C14.6362 80.654 15.1486 81.4917 15.7643 82.25C16.7719 83.5358 17.9516 84.6493 19.4717 85.349C20.9918 86.0488 22.4259 85.7661 23.5092 84.4872C24.2108 83.6841 24.5891 82.643 24.565 81.5744C24.5513 80.9849 24.8127 80.6574 25.1738 80.3127C27.1479 78.4547 29.1219 76.5967 31.0926 74.7352C33.6479 72.3256 36.2066 69.9195 38.7653 67.5168C38.8994 67.6616 39.0336 67.8029 39.1711 67.9443C39.718 68.4889 40.2992 68.9956 40.9148 69.4645C43.9756 74.0285 49.9666 84.0081 52.1195 87.5966C52.2881 87.3277 52.3981 87.1623 52.4978 86.9865C55.0531 82.7188 61.1542 72.236 61.56 71.4776C62.2616 70.3676 62.6399 69.5989 62.8394 69.068C63.2658 68.713 63.6785 68.3372 64.074 67.9408C64.332 67.6823 64.5796 67.4134 64.8203 67.1411L72.8886 74.7352C74.8627 76.5932 76.8367 78.4512 78.8074 80.3127C79.1754 80.6574 79.4367 80.9849 79.4161 81.5744C79.392 82.643 79.7703 83.6841 80.4719 84.4872C81.5553 85.7627 82.9791 86.0488 84.5095 85.349C86.0399 84.6458 87.2092 83.5358 88.2169 82.25C88.8325 81.4917 89.3484 80.654 89.7404 79.7577C90.6725 77.5136 89.565 75.7866 87.4431 75.0868C86.7828 74.8696 86.0365 74.9144 85.3314 74.8214C85.1389 74.8145 84.9497 74.7559 84.7881 74.6456C83.1613 73.1702 81.5449 71.6879 79.9354 70.1918C78.3431 68.7061 76.7508 67.2169 75.1653 65.7243C79.3129 66.6826 83.5121 67.4134 87.7389 67.9132C88.2788 67.9787 88.1963 67.8133 88.0828 67.4547C87.4465 65.3554 86.8344 63.2458 86.1947 61.1464C86.0365 60.6742 86.0434 60.164 86.2153 59.6952C86.7965 58.0336 87.3296 56.3583 87.8936 54.6899L91.3293 53.2938C92.3851 52.987 93.465 52.594 93.692 52.3148C94.4555 51.3737 94.2217 50.0741 93.9362 48.9296L93.8915 48.7538C93.8468 48.516 93.7952 48.2712 93.7402 48.0161L92.9113 44.7344L92.0997 41.4906C91.6045 39.505 90.5624 38.3089 89.001 37.9262L88.155 37.7194C88.1653 37.5126 88.1309 37.3023 88.0621 37.1093L87.9555 36.8197L88.4645 36.9024C88.5608 36.9197 88.6571 36.9266 88.7568 36.9266C89.2521 36.9266 89.7232 36.7163 90.0534 36.3474C90.442 35.9096 90.559 35.296 90.3595 34.7479C89.8986 33.4966 89.4412 32.2522 88.9873 31.025C88.7534 30.4217 88.1928 30.0081 87.5497 29.9564C86.7312 29.884 85.9058 29.8116 85.0804 29.7426C85.3142 29.5358 85.5516 29.3324 85.782 29.1325C88.8566 26.3954 91.8796 23.5998 94.8854 20.7834C97.568 18.267 100.168 15.6644 102.864 13.1617C103.562 12.5137 103.827 11.7691 103.999 10.9004C103.985 10.2385 104.04 9.5939 103.965 8.94928L103.958 8.93204ZM68.0119 7.59109C67.6198 7.19122 67.2277 6.79824 66.8357 6.39492C66.7463 6.30184 66.5743 6.22945 66.6465 6.07778C66.6809 6.00194 66.8391 5.96402 66.9526 5.94678C72.0666 5.1953 80.7814 4.98158 85.8783 6.2329C86.5833 6.40526 87.309 6.49144 87.9865 6.77066C88.1378 7.06367 87.8799 6.96715 87.7801 6.97404C87.0338 7.0223 82.6799 6.90165 81.9336 6.94647C79.2063 7.10848 76.5135 7.49112 73.9066 8.34947C73.346 8.53561 73.3426 8.56319 73.7931 8.97341C74.1645 9.31123 74.5256 9.6525 74.9039 9.98343C75.21 10.2454 76.1764 11.3106 76.1764 11.3106L75.8359 11.4623L70.6531 12.7515C70.4296 12.8067 70.2095 12.886 69.9859 12.9377C69.3772 13.0687 69.305 13.0032 69.3772 12.3792C69.4598 11.5588 69.1709 10.828 68.8682 10.0972C68.6275 9.80418 68.3971 9.50772 68.1494 9.2216C67.7574 8.76313 67.2587 8.45633 66.5777 8.15298C67.1143 8.08748 67.4926 8.03233 67.864 8.0013C68.201 7.97028 68.2698 7.85307 68.0153 7.59109H68.0119ZM82.8759 9.2285C81.8407 10.2006 80.8124 11.1796 79.7875 12.1586C79.7635 11.776 79.5949 11.414 79.3198 11.1486C79.1307 10.959 78.9346 10.7694 78.7386 10.5867C78.515 10.3799 78.5185 10.2489 78.8452 10.1799C79.2373 10.0972 79.6259 9.96964 80.0214 9.90414C80.8743 9.76626 81.6825 9.42154 82.5217 9.29399C82.6386 9.27331 82.759 9.25263 82.8793 9.23539L82.8759 9.2285ZM78.0439 13.8305C77.1497 14.6957 76.259 15.5679 75.3717 16.4434C75.3407 16.0505 75.2719 15.6609 75.1619 15.2852C75.0656 14.9508 75.1275 14.8164 75.468 14.7061C76.3277 14.4303 77.1978 14.1442 78.0473 13.8339L78.0439 13.8305ZM31.0616 14.6612C31.0994 14.6371 31.1338 14.613 31.1717 14.5889C31.2404 14.5475 31.3092 14.5096 31.378 14.4751C31.4468 14.4406 31.5087 14.4062 31.5775 14.3751C31.6463 14.3441 31.7116 14.3131 31.777 14.2855C31.8423 14.2579 31.9386 14.22 32.0246 14.189C32.083 14.1683 32.1415 14.1476 32.2 14.1269C32.341 14.0821 32.482 14.0442 32.6299 14.0097C32.6711 13.9994 32.709 13.9959 32.7502 13.989C32.8672 13.9649 32.9841 13.9477 33.101 13.9304L33.2661 13.9132C33.3796 13.9029 33.4931 13.896 33.6066 13.8925H33.7579C33.923 13.8925 34.0881 13.8925 34.2566 13.9132C34.3288 13.5547 34.346 13.1859 34.573 12.8722C34.8928 12.4344 35.2849 12.1379 35.8455 12.3275C36.3338 12.4895 36.3029 12.2861 36.2135 11.9276C35.6494 9.49738 37.2968 8.02543 38.8822 7.61522C39.6526 7.40839 40.4677 7.47733 41.1934 7.80826C41.3963 7.90133 41.5785 8.06335 41.8262 8.05301C41.9465 7.8255 41.7986 7.63245 41.7471 7.44286C41.465 6.41215 41.8502 5.64688 42.8441 5.28837C44.3161 4.7644 45.4923 5.10912 46.4587 6.34666C46.5516 6.46731 46.665 6.57417 46.7717 6.68448C47.1121 5.34698 47.6693 4.13702 48.8799 3.35796C51.9682 1.37238 56.5767 1.89291 58.7365 5.1367C59.1251 5.68825 59.3933 6.31908 59.5172 6.98094C59.5687 7.30153 59.6685 7.32221 59.9161 7.13261C60.7621 6.48454 61.6116 6.67414 62.4404 7.18087C63.0664 7.56696 63.2452 8.17711 63.2246 8.86999C63.2246 9.13542 63.1042 9.26986 62.8222 9.19403C62.5849 9.26986 62.3235 9.31812 62.155 9.51461C61.9211 9.79039 61.646 9.85588 61.2918 9.85933C60.7896 9.85933 60.3941 10.0696 60.3769 10.666C60.7209 10.4005 61.0682 10.1661 61.5291 10.3971C61.7217 10.4902 61.8352 10.3799 61.9762 10.2454C62.7121 9.55598 63.2177 9.5284 64.0396 10.1041C64.1222 10.1523 64.2047 10.1937 64.2941 10.2282C64.332 9.86278 64.1153 9.64561 63.8539 9.44912C63.5754 9.32847 63.5479 9.2285 63.8677 9.11819C65.2777 8.62179 66.6362 8.60111 67.5682 9.61458C68.8441 11.0003 68.9955 12.2896 68.1185 13.8167C68.0841 13.8822 68.06 13.9511 67.9947 14.0959C68.3833 13.9753 68.6963 13.8615 69.023 13.7891C71.6367 13.1514 73.7828 15.1921 73.2669 17.8499C73.1431 18.4842 73.0399 19.1426 72.641 19.6838C72.7579 20.1423 73.0193 19.8355 73.2016 19.7734C74.4225 19.3804 75.0174 19.5976 75.351 19.7631C75.7259 19.9354 76.056 20.1871 76.3243 20.5008C76.7817 21.0213 77.1153 21.6349 77.301 22.3036C77.559 23.1275 77.3251 23.8514 76.8539 24.5236C76.7439 24.6581 76.6235 24.7856 76.4928 24.8994C76.1455 25.2441 75.9494 25.4268 75.7706 25.4785C75.7018 25.3923 75.6262 25.3165 75.5402 25.251C75.1653 24.9855 74.7526 24.7787 74.3193 24.627C73.8481 24.3719 73.3288 24.2306 72.7957 24.2134C72.5619 24.172 72.3211 24.1375 72.077 24.1134C71.9566 24.0307 71.9084 23.8859 71.9497 23.6411C71.9497 23.6411 71.9978 23.1827 71.5783 22.5863C70.6222 21.4005 68.6103 20.8489 67.5889 21.4935C67.5717 21.5039 67.5476 21.5211 67.5476 21.5315C67.5579 21.5625 67.5717 21.597 67.5889 21.6245C68.3971 21.5694 69.2053 21.7073 69.9481 22.0313C70.7907 22.376 71.3582 23.1758 71.4132 24.0893C69.2912 24.041 67.1177 24.8304 66.6328 27.5882C66.6328 27.5882 63.6063 26.8608 62.5883 28.4844L61.701 28.4603H61.6598C61.0957 28.4603 60.5627 28.7361 60.2463 29.2049C59.6547 28.7119 58.9153 28.4327 58.1484 28.4051H58.1793C58.1621 28.2879 58.1587 28.1707 58.169 28.0535C58.7777 26.3196 59.9058 25.2096 61.9383 25.5233C62.0277 25.5371 62.1344 25.606 62.1928 25.4957C62.2513 25.3854 62.1688 25.2717 62.0828 25.1889C61.8455 24.9614 61.5394 24.8166 61.2127 24.7718L60.1809 24.6581C60.0605 24.0134 60.5248 23.2826 61.2471 22.9758C62.2169 22.5622 63.3449 22.8552 63.9915 23.6928C64.2047 23.9617 64.4076 24.2375 64.6174 24.5133C64.6587 23.7721 64.3698 23.1172 64.0672 22.4691L63.9502 22.2381L63.8367 22.1071L63.8471 22.1175C63.7783 22.0313 63.6992 21.952 63.6132 21.8796C62.1068 20.8455 60.7174 20.9386 59.3521 22.2071C59.1148 21.497 58.8568 20.8213 58.114 20.5042C57.3333 20.1698 56.7039 20.5594 56.0436 20.9317C55.5209 18.9909 54.128 18.236 52.2984 18.1601C51.0947 18.1119 50.1489 18.6807 49.4783 19.6665C49.2582 19.9906 49.1275 20.0251 48.8351 19.7389C47.9926 18.9254 47.033 18.9357 46.1732 19.7183C45.7021 20.1457 45.2963 20.6386 44.9695 21.1867C44.7804 21.5073 44.5809 21.597 44.2164 21.4694C42.373 20.8213 40.7944 21.5866 40.0756 23.455C40.0206 24.01 39.9862 24.565 40.227 25.1889C40.251 24.6925 40.3336 24.203 40.4746 23.7273C40.7428 22.9276 41.2071 22.576 42.0531 22.5553C43.6283 22.5139 44.6222 23.1482 45.0074 24.4271C45.0899 24.7098 45.1277 24.8649 44.7219 24.8994C44.1476 24.9476 43.8656 25.151 43.6799 25.6439H41.1486C40.8219 25.6439 40.4986 25.7405 40.2235 25.9128C38.7309 24.9131 36.5505 25.6853 36.5505 25.6853C37.032 23.8514 33.7579 23.4964 33.7579 23.4964C34.174 20.6835 31.7357 19.7183 30.6214 19.439C30.5595 19.408 30.4976 19.3735 30.4357 19.3425C30.0677 19.3184 29.6963 19.2977 29.3489 19.4425C29.3489 19.4425 29.318 19.4494 29.3008 19.4563C28.8296 19.6769 28.7574 19.3839 28.7643 19.0426C28.7814 18.2015 28.9775 17.3742 29.3455 16.6192C29.3455 16.602 29.3627 16.5848 29.3695 16.571C29.5931 16.1228 29.8854 15.7092 30.2362 15.3472L30.3119 15.2714C30.3841 15.199 30.4632 15.1301 30.5389 15.0611L30.6386 14.9818C30.7796 14.8646 30.9275 14.7578 31.0822 14.6578L31.0616 14.6612ZM75.8222 26.4265C75.7912 26.3506 75.7706 26.2713 75.7568 26.1921V26.1334C75.75 26.0955 75.75 26.0542 75.7568 26.0128C75.7568 25.9956 75.7637 25.9818 75.7706 25.9645C75.7809 25.9335 75.7981 25.9059 75.8187 25.8818C75.8256 25.8715 75.8325 25.8611 75.8428 25.8542C75.8738 25.8232 75.915 25.7991 75.9563 25.7818C76.1008 25.7336 76.2486 25.7129 76.4 25.7129C77.8066 25.6474 79.2098 25.9404 80.4719 26.5712C81.428 27.0607 82.219 27.7226 82.5732 28.7395C82.1709 29.0946 81.7685 29.4565 81.3627 29.8081C80.8296 29.5013 80.2346 29.3221 79.619 29.2876C78.5322 29.2118 77.4145 29.1359 76.3105 29.0704C76.2142 29.0704 76.1283 29.0635 76.0457 29.0635C75.8016 29.0635 75.5608 29.0877 75.3201 29.1325C75.382 29.0222 75.4336 28.9119 75.4852 28.7981L75.523 28.7085C75.5574 28.6258 75.5918 28.5396 75.6193 28.4534C75.633 28.4155 75.6468 28.3776 75.6605 28.3396C75.6881 28.2569 75.7121 28.1707 75.7362 28.088C75.7465 28.0535 75.7568 28.0191 75.7672 27.9811C75.7981 27.8639 75.8256 27.7433 75.8497 27.6226C75.9563 27.2331 75.9494 26.8229 75.8256 26.4368V26.4265H75.8222ZM22.9727 27.1435C22.7904 26.492 23.1997 25.9887 23.9047 25.899C24.0113 25.8853 24.0939 25.8611 24.1317 25.7646C24.1695 25.6715 24.1317 25.5647 24.0423 25.513C23.1034 24.8235 23.3854 23.8307 23.5539 22.9862C23.9013 21.2109 25.7378 19.8527 27.5296 19.9078C27.6912 19.9078 27.9113 19.8355 27.987 20.0526C28.042 20.2181 27.8666 20.3181 27.76 20.4284C27.3026 20.8696 27.0791 21.5004 27.1582 22.1313C27.3611 22.0003 27.3473 21.7624 27.4402 21.5832C27.76 20.9041 28.3653 20.4008 29.091 20.2078L29.1047 20.2215V20.2078C29.483 20.1181 29.8751 20.1043 30.2568 20.1698C30.3016 20.1767 30.3463 20.1802 30.391 20.1871C30.9584 20.3008 33.1079 21.2488 32.9497 23.9583C32.9188 24.496 33.0254 24.4685 33.4071 24.3133C34.5386 23.8549 35.9762 24.7718 35.7492 26.3093C35.6804 26.7677 35.5084 27.0435 34.965 26.9918C34.2979 26.9263 33.6754 27.1435 33.0941 27.4503C32.9772 27.5227 32.8844 27.6295 32.8259 27.7571C33.524 27.633 34.1981 27.4847 34.9031 27.5537C35.1886 27.5813 35.4912 27.533 35.6563 27.8605C35.5222 27.8708 34.3426 28.2018 34.2084 28.1983C34.6486 28.3638 35.9246 28.0466 36.3854 28.6809C36.4817 28.8119 36.578 28.9257 36.6674 29.0394C36.4783 29.2187 36.3338 29.4393 36.2513 29.684C36.2272 29.7564 36.1997 29.8357 36.1756 29.9047C36.0965 29.8736 36.014 29.8461 35.9314 29.8185C35.8489 29.7909 35.7801 29.7564 35.7045 29.7289C35.5703 29.6806 35.4465 29.6151 35.3158 29.5565C35.1852 29.4979 35.0476 29.4669 34.9169 29.4186C34.6177 29.3117 34.3116 29.2221 34.0021 29.1566C33.8817 29.129 33.7613 29.1015 33.641 29.0704C33.3727 28.9084 33.0666 28.8188 32.7537 28.8154H32.6677C31.7529 28.8602 30.8346 28.9084 29.9164 28.9601C29.7616 28.9705 29.6068 29.0015 29.459 29.0532C29.3386 29.0256 29.2148 29.0118 29.0944 29.0118H28.9912C27.2648 29.1118 25.5143 29.2256 23.7947 29.3497C23.437 29.3738 23.0931 29.5117 22.8145 29.7392C22.6873 29.6909 22.5531 29.6496 22.419 29.6185C21.9307 29.6427 21.3185 29.6737 20.7648 29.6737C20.9608 29.4496 21.9272 28.3776 22.1576 28.1811C22.3055 28.057 22.4672 27.9536 22.6426 27.8743C22.9658 27.726 23.0725 27.5502 22.9693 27.1538V27.1435H22.9727ZM51.6828 21.4556C51.2701 21.1971 51.2701 21.1868 50.6854 21.2695C50.3381 21.3212 50.2693 21.2212 50.3931 20.8972C50.6992 20.0974 51.4145 19.6459 52.4084 19.6562C53.337 19.67 53.8769 20.0699 54.1796 20.9317C54.3447 21.4039 54.2828 21.9693 54.8227 22.2864C55.4796 22.7001 56.2534 22.8862 57.0238 22.8207C57.4468 22.7793 58.4579 23.4964 58.5886 23.8893C58.6402 24.041 58.5508 24.1031 58.4613 24.172C57.918 24.5822 57.6807 25.1613 57.5912 25.8129C57.55 26.1059 57.5121 26.1507 57.2095 26.0025C56.6695 25.7405 56.2534 25.2992 55.6963 25.0614C54.9878 24.7408 54.1865 24.6925 53.4436 24.9235C53.1685 25.0062 53 24.9924 52.7867 24.7856C52.2709 24.2961 51.8822 24.334 51.1566 24.9993C52.0301 24.6753 52.5804 24.92 52.9725 25.5578C53.0928 25.7474 53.2269 25.6612 53.3576 25.5578C53.901 25.1579 54.4582 25.3509 54.9878 25.5578C55.3214 25.6888 55.4142 25.9025 55.0015 26.0955C54.5029 26.3161 54.0971 26.6988 53.8426 27.1814C53.7635 27.3331 53.6809 27.4296 53.4849 27.3813C53.055 27.2676 52.6389 27.3813 52.2502 27.5502C51.9063 27.6916 51.7722 27.6812 51.669 27.2572C51.3767 26.0748 50.7542 25.1062 49.6502 24.5064C49.1378 24.2341 48.5635 24.1031 47.9857 24.1272C47.6934 24.1272 47.5661 24.0755 47.5076 23.7928C47.3563 23.0275 46.9883 22.4725 46.1113 22.4346C45.8431 22.4208 45.9119 22.2037 45.9669 22.0348C46.3968 20.6593 48.2023 20.1871 49.2754 21.1592C49.5092 21.3729 49.5642 21.5246 49.2582 21.7383C48.9142 21.9762 48.6219 22.2795 48.5497 22.7518C49.4198 21.9555 50.4584 21.5694 51.6793 21.4694V21.4591L51.6828 21.4556ZM55.8304 42.3283C54.7986 42.2869 53.7669 42.2662 52.7317 42.2593C52.7076 38.1538 52.6801 34.0447 52.6526 29.9391C54.41 29.9391 56.1674 29.9529 57.9248 29.9805C58.9738 29.9943 59.5687 30.6148 59.6582 31.5421C59.8508 33.5552 60.0399 35.5718 60.2291 37.5884C60.3219 38.5502 59.9367 39.2396 58.2584 39.1431C57.4055 39.0983 56.5492 39.0604 55.6928 39.0362L55.8304 42.3317V42.3283ZM46.4346 27.209C46.8748 26.7746 46.9746 26.3368 46.7029 25.8439C46.524 25.5233 46.6238 25.4406 46.9471 25.4371C47.4148 25.4371 47.8653 25.5957 48.2333 25.8887C49.0381 26.4988 49.5471 27.3331 49.9185 28.2604C49.9254 28.2845 49.9322 28.3086 49.9357 28.3362H49.1481C48.5531 28.3362 47.9994 28.6464 47.6899 29.1566C47.3735 28.6637 46.8267 28.3638 46.2386 28.3707H46.2111C45.85 28.3707 45.4854 28.3845 45.1243 28.3913C45.537 27.9777 45.6883 27.3744 45.5198 26.816C45.3478 26.2748 44.9111 25.8577 44.3608 25.7129C44.6635 25.6888 44.9661 25.7474 45.2412 25.8784C45.8121 26.1472 46.2523 26.5161 46.4312 27.2228V27.2124L46.4346 27.209ZM46.2317 29.9839C46.5859 31.7386 46.9711 33.4794 47.3873 35.2133C48.0098 33.4484 48.5978 31.6937 49.155 29.9495C50.1042 29.9426 51.0534 29.9391 52.0026 29.9391L51.9785 42.2697C50.9674 42.2697 49.9563 42.2869 48.9452 42.3248L49.155 36.4922C48.4809 38.1538 47.769 39.8291 47.0193 41.5182C46.469 39.8911 45.9566 38.2572 45.482 36.6163C45.3238 38.5881 45.169 40.5599 45.0108 42.5317C44.0031 42.6075 42.9955 42.6971 41.9878 42.804C42.459 38.5502 42.9301 34.2964 43.3979 30.0425C44.3402 30.0219 45.2825 30.0046 46.2248 29.9908V29.9805L46.2317 29.9839ZM40.3783 29.4462L38.4386 29.4944C39.3534 28.7257 40.2476 27.9777 41.1246 27.2538H43.8897C42.7479 27.9708 41.5785 28.705 40.3783 29.4565V29.4462ZM33.2902 41.6457C32.9531 42.542 32.6161 43.4417 32.2722 44.3518C30.3703 44.7517 28.4822 45.2136 26.6045 45.7375C27.7394 40.684 28.8709 35.627 30.0058 30.5734C30.9206 30.5217 31.8354 30.4734 32.7502 30.4286C31.9317 34.3619 31.1098 38.2985 30.2912 42.2318C31.2852 42.0215 32.2859 41.8284 33.2936 41.6492L33.2902 41.6457ZM37.8539 30.1701C38.8066 30.1356 39.7592 30.1046 40.7153 30.077C40.9079 34.4239 41.2277 38.6674 41.6748 42.8385C40.6328 42.9522 39.5941 43.0867 38.5555 43.2314C38.5418 42.704 38.528 42.1732 38.5143 41.6423C37.823 41.7354 37.1317 41.8319 36.4439 41.9491C36.2616 42.5179 36.0793 43.0901 35.8936 43.6623C34.8584 43.8381 33.8267 44.0346 32.7984 44.2449C34.5971 39.3878 36.2857 34.71 37.8505 30.1666L37.8539 30.1701ZM37.3862 28.25H37.3587C37.3415 27.8157 37.0664 27.4365 36.6605 27.2848C36.2135 27.1193 36.296 26.9401 36.5608 26.685C37.3896 25.8853 38.6415 25.7474 39.7008 26.323C38.9441 26.9504 38.1703 27.5916 37.3828 28.25H37.3862ZM23.9082 30.9629C25.6277 30.8388 27.3542 30.7251 29.0807 30.6251C29.0153 31.5731 28.9534 32.5142 28.8949 33.4449C27.9045 33.5483 26.914 33.6552 25.9235 33.7724L25.0087 37.5919C25.7825 37.4505 26.5563 37.3161 27.3301 37.1885L26.7214 39.8567C25.9304 40.0187 25.1394 40.1876 24.3484 40.3668L23.5127 43.8795C24.5375 43.5934 25.5658 43.3245 26.5976 43.0694L25.4283 46.0719C23.5161 46.6235 21.6177 47.2405 19.7365 47.9231L23.9082 30.9629ZM24.9674 49.0985C42.6756 44.369 61.309 44.3656 79.0206 49.0847V57.7027C61.3812 52.5664 42.6481 52.5664 25.0087 57.7027C24.9949 57.6475 24.9777 57.5924 24.9606 57.5372V49.0985H24.9674ZM60.3563 42.6213C60.9135 38.495 61.3365 34.3239 61.6357 30.0632C62.5883 30.0874 63.5444 30.1115 64.4971 30.1425C65.9621 34.5721 67.5441 39.1086 69.2568 43.8037C68.2251 43.6141 67.1899 43.4452 66.1513 43.2935C65.9793 42.735 65.8074 42.1801 65.6389 41.6251C64.9476 41.532 64.2529 41.4493 63.5616 41.37C63.5375 41.8939 63.51 42.4179 63.4825 42.9384C62.4439 42.8109 61.4018 42.704 60.3563 42.6144V42.6213ZM71.819 44.3035C70.0616 43.9347 69.3187 43.2349 69.0608 41.7319C68.4899 38.4468 67.919 35.1616 67.3481 31.8799C67.1762 30.8871 67.5992 30.2528 68.6481 30.2907C69.9206 30.3425 71.1897 30.4011 72.4587 30.4665C72.8061 31.3835 73.1603 32.3108 73.518 33.2519C72.5172 33.1588 71.5164 33.0692 70.5121 32.9864C70.323 32.9726 70.2851 33.0657 70.3195 33.2381L71.9566 41.6078C71.9738 41.7802 72.1079 41.9146 72.2799 41.9319C72.7338 42.018 73.1878 42.1077 73.6383 42.2007C73.2497 40.3117 72.8576 38.4157 72.4656 36.5129C73.3804 36.637 74.2952 36.768 75.21 36.9059C75.8531 39.7981 76.4928 42.6868 77.1325 45.5755C75.3751 45.0998 73.6039 44.6758 71.819 44.3001V44.3035ZM72.5584 28.8602C71.2894 28.7947 69.9997 28.7361 68.7307 28.6809H68.5656C67.637 28.6809 66.8322 29.0153 66.2957 29.622C66.251 29.6737 66.2063 29.7289 66.1616 29.7909C66.1479 29.7495 66.1341 29.7116 66.1203 29.6703C65.8899 29.0015 65.264 28.5465 64.559 28.5327L63.5444 28.5051C64.1463 28.0466 65.1333 27.7984 66.5709 28.0294C66.932 28.088 67.1039 28.1018 67.0695 27.6605C66.9836 26.5333 67.606 25.837 68.5209 25.3268C69.0986 25.0269 69.7074 24.8028 70.3402 24.6546C70.7082 24.5684 70.9283 24.5891 71.4063 24.5305C71.5714 24.5305 71.7365 24.5443 71.9016 24.565C72.5137 24.6305 73.0949 24.8614 73.5867 25.2303C73.9616 25.5199 74.2711 25.8853 74.5016 26.2989C74.5738 26.4265 74.6357 26.5609 74.6907 26.6988C74.7079 26.7436 74.7217 26.7919 74.7389 26.8367C74.7698 26.9263 74.7973 27.0125 74.8214 27.1021C74.8352 27.1573 74.8489 27.2159 74.8627 27.271C74.8764 27.3262 74.8936 27.4227 74.9039 27.5089C74.9143 27.5951 74.9211 27.6295 74.928 27.695C74.9349 27.7605 74.9383 27.8467 74.9418 27.9122C74.9452 27.9777 74.9521 28.0501 74.9521 28.119V28.2155C74.9521 28.4293 74.9349 28.643 74.9108 28.8602V28.8843C74.8971 29.0084 74.8799 29.1325 74.8592 29.26C74.5394 29.3738 74.2436 29.5462 73.9857 29.7668C73.7002 29.2359 73.1568 28.8912 72.555 28.8671L72.5584 28.8602ZM12.7516 19.5287C12.4971 19.7527 12.2563 19.9871 12.0156 20.2284C11.2383 19.508 10.4611 18.791 9.69071 18.0705C7.37272 15.8919 5.11663 13.6547 2.81584 11.4519C2.58198 11.2348 2.43409 10.9383 2.40314 10.6177C2.09706 8.28742 2.91214 6.33976 4.51822 4.70925C5.85949 3.34417 7.49309 2.55476 9.44653 2.52719C10.0174 2.49271 10.5746 2.69954 10.9873 3.09597C12.4248 4.44726 13.9174 5.7434 15.3653 7.09125C17.5595 9.12853 19.7468 11.1762 21.9307 13.2376C20.5034 13.8994 19.1277 14.6647 17.814 15.5299C16.0187 16.7261 14.3645 18.1015 12.755 19.5321L12.7516 19.5287ZM28.7471 12.7412L28.355 15.0921L30.3531 14.3476C29.1907 15.1645 28.5751 16.44 28.2484 17.4741L27.8976 19.1564C24.283 19.4701 22.7492 22.0003 22.7492 22.0003L23.9082 18.1808C19.9463 19.0357 13.5666 21.89 13.5666 21.89C19.1828 15.7092 28.7505 12.7412 28.7505 12.7412H28.7471ZM18.1373 25.8266C17.3119 25.0855 16.4934 24.334 15.6714 23.586C16.9473 23.1585 18.2439 22.7897 19.5473 22.445C19.7949 22.3795 20.1148 22.1037 20.2833 22.3071C20.4518 22.5105 20.218 22.8414 20.132 23.1103C19.8259 24.0789 20.0322 24.6374 20.8852 25.151C21.0055 25.2234 21.2428 25.2579 21.1568 25.4578C20.978 25.8611 21.0434 26.3851 20.5481 26.6436C20.2627 26.8056 19.9978 27.0021 19.7605 27.2262C19.7537 27.2331 19.7468 27.24 19.7365 27.2469C19.2068 26.7712 18.6703 26.3024 18.1373 25.8232V25.8266ZM16.1563 49.2881C16.1666 47.5576 16.1907 45.7789 16.232 43.9588L15.8605 44.0794C15.3619 46.065 14.8632 48.0506 14.3645 50.0396C13.3947 50.4567 12.4283 50.8945 11.4687 51.3461L16.428 31.5765C18.096 31.4249 19.7674 31.2801 21.4423 31.1491C22.6838 31.0595 23.014 31.8971 22.6838 33.2415L20.7132 41.2045C20.5275 41.9594 19.8844 42.8454 19.059 43.0901C19.0934 44.8103 19.1449 46.4856 19.2103 48.1126C18.1889 48.4884 17.1743 48.8814 16.1632 49.2916H16.1563V49.2881ZM22.9796 64.3868C21.7587 64.6798 20.5206 64.8763 19.2722 64.9831L19.1931 65.0142L19.2103 64.9211C19.4992 63.5353 19.9944 62.2047 20.3693 60.8431C20.4725 60.5225 20.4656 60.1743 20.3555 59.8572C19.9531 58.6886 19.5852 57.5131 19.1862 56.3445C19.1862 56.3342 19.1793 56.3238 19.1793 56.3135L22.5807 56.2618V60.1881C22.5979 60.2502 22.615 60.3088 22.6357 60.3708L22.6976 60.3536C22.7526 60.5535 22.8695 60.7259 23.0346 60.85L24.7714 62.2116L27.165 63.587C25.724 63.9007 24.3725 64.2248 22.9899 64.3868H22.983H22.9796ZM25.6243 59.7158C26.0817 59.5331 26.5598 59.4056 27.0481 59.3332C27.2476 59.2712 27.4333 59.1574 27.6568 59.1988C28.7746 58.8472 29.937 58.6886 31.1338 58.3921V61.991C32.1931 61.2636 33.0219 60.943 33.8198 61.0258C33.2076 61.598 32.5955 62.1702 31.9799 62.7425C29.428 61.96 26.7695 60.7707 25.6312 59.7158H25.6243ZM22.2264 81.564C22.2195 82.1397 21.9822 82.6913 21.5661 83.0911C21.3838 83.2256 21.1672 83.298 20.9402 83.3049C20.8852 83.3049 20.7889 83.0325 20.7407 82.8774C20.4346 81.8502 19.7949 81.0332 19.083 80.2679C18.2817 79.4061 17.4185 78.6202 16.2732 78.2548C16.3489 77.7446 16.8201 77.3516 17.446 77.1999C18.2129 77.0276 19.0177 77.1448 19.7021 77.5309C21.0537 78.2582 22.3262 79.7301 22.2299 81.5675H22.223L22.2264 81.564ZM24.6992 77.6239C24.1764 76.476 23.2891 75.5315 22.1748 74.9455C22.3949 74.5353 22.6322 74.4594 23.014 74.6628C23.891 75.1178 24.5891 75.8555 24.9949 76.7587C25.191 77.1723 25.1635 77.455 24.7061 77.6308H24.6992V77.6239ZM27.2098 75.2971C26.7936 74.0113 25.9785 73.0943 24.7129 72.6048C24.9812 72.0946 25.0981 72.0533 25.5796 72.298C26.4566 72.7186 27.1513 73.4494 27.5262 74.3457C27.6912 74.7203 27.5869 75.0374 27.2132 75.2971H27.2063H27.2098ZM29.7857 72.9185C29.373 71.6224 28.5338 70.7261 27.2579 70.1918C27.6912 69.6713 27.7291 69.6644 28.2518 69.9505C29.0635 70.378 29.7066 71.0639 30.0814 71.9016C30.2511 72.29 30.1525 72.629 29.7857 72.9185ZM32.3238 70.5055C31.9145 69.199 31.0582 68.3234 29.8201 67.7995C30.0998 67.4433 30.4219 67.3617 30.7865 67.5547C31.6084 67.9856 32.2653 68.6785 32.6539 69.5231C32.8396 69.9333 32.8396 70.2745 32.3169 70.5055H32.3238ZM34.8722 68.089C34.487 66.8481 33.5516 65.8587 32.3375 65.4037C32.6425 65.0452 32.9887 64.9728 33.3762 65.1865C34.205 65.614 34.855 66.3275 35.2058 67.1928C35.4259 67.7409 35.4259 67.7443 34.8688 68.089H34.8722ZM34.9031 63.0148C35.0923 62.7011 35.2952 62.5839 35.5531 62.6287C35.7148 62.9941 35.8902 63.3526 36.0759 63.6973C35.7182 63.4147 35.3227 63.1871 34.9031 63.0182V63.0113V63.0148ZM52.1299 82.5879C51.528 81.5503 47.3873 74.6421 46.0976 72.5255L46.1904 72.4497C46.3108 72.5566 46.4381 72.66 46.555 72.7772C47.9616 74.2009 51.8926 78.1755 51.8926 78.1755C52.1883 78.4168 52.3121 78.1307 52.4669 77.9755C54.1762 76.2692 55.8854 74.5594 57.5947 72.8496C57.746 72.7048 57.8492 72.5014 58.2034 72.4325L52.1333 82.5913L52.1299 82.5879ZM63.283 65.7656L63.2693 65.9035L63.2177 65.838C62.9357 66.1552 62.6433 66.4585 62.3373 66.755L62.3613 66.786C59.469 69.5403 55.6275 71.0708 51.6381 71.0639C51.4248 71.0639 51.2116 71.057 50.9984 71.0502C43.3531 70.7503 37.0629 64.9176 36.1688 57.2994L36.4301 57.2615C38.8375 56.8892 41.2553 56.6065 43.6799 56.4066C44.0891 56.3721 44.5018 56.3445 44.9145 56.3135C49.3923 56.0032 53.8838 55.986 58.3616 56.2618C58.7743 56.2893 59.1836 56.3135 59.5963 56.3411C61.9452 56.5169 64.2873 56.7685 66.6259 57.1063C66.7772 57.127 66.9182 57.1442 67.0661 57.1684C66.7222 60.3605 65.3981 63.363 63.2796 65.7691L63.2865 65.7622L63.283 65.7656ZM66.5881 65.7208C66.4367 65.6312 66.2992 65.5209 66.1754 65.3968C66.65 64.7039 67.0695 63.98 67.4375 63.2285C67.6645 63.0389 67.9087 62.8769 68.1701 62.7356C68.5724 62.5253 68.851 62.5942 69.1055 63.0148C67.8296 63.5457 66.9836 64.4212 66.5812 65.7277L66.5881 65.7208ZM69.133 68.089C68.5793 67.7374 68.5828 67.734 68.8029 67.1928C69.1537 66.3275 69.8037 65.614 70.6325 65.1865C71.0223 64.9751 71.3685 65.0475 71.6711 65.4037C70.4537 65.8553 69.5113 66.8446 69.1262 68.089H69.133ZM71.6918 70.4986C71.169 70.2676 71.169 69.9264 71.365 69.5162C71.7537 68.6716 72.4105 67.9787 73.2325 67.5478C73.5971 67.3571 73.9192 67.4387 74.1989 67.7926C72.9539 68.32 72.0941 69.199 71.6883 70.5021L71.6952 70.4952L71.6918 70.4986ZM84.2928 77.5274C84.9772 77.1413 85.782 77.0207 86.5489 77.1965C87.1783 77.3481 87.6494 77.7411 87.7217 78.2513C86.5764 78.6167 85.7097 79.4061 84.9119 80.2645C84.2 81.0297 83.5637 81.8467 83.2542 82.874C83.206 83.0256 83.1098 83.3049 83.0547 83.3014C82.8277 83.298 82.6111 83.2221 82.4288 83.0877C82.0161 82.6878 81.7788 82.1363 81.7719 81.5606C81.6653 79.7301 82.9378 78.2548 84.2825 77.5377L84.2894 77.524L84.2928 77.5274ZM80.974 74.6594C81.3523 74.456 81.5931 74.5353 81.8132 74.942C80.6989 75.528 79.8116 76.4726 79.2889 77.6205C78.8314 77.4447 78.8039 77.162 78.9828 76.7518C79.3886 75.8486 80.0902 75.1109 80.9706 74.6559L80.974 74.6594ZM78.4153 72.2946C78.8968 72.0533 79.0137 72.0947 79.282 72.6014C78.0198 73.0909 77.2047 74.0078 76.7851 75.2936C76.4114 75.0339 76.3048 74.7156 76.4653 74.3388C76.8436 73.4425 77.5383 72.7151 78.4119 72.2946H78.4153ZM75.7603 69.9505C76.2865 69.6678 76.3243 69.6747 76.7542 70.1918C75.4783 70.7227 74.6391 71.6224 74.2264 72.9185C73.855 72.629 73.7575 72.29 73.9341 71.9016C74.3055 71.0639 74.9452 70.378 75.7534 69.9505H75.7603ZM72.0735 62.8011C71.451 62.2185 70.8285 61.6359 70.206 61.0568C71.0418 60.8879 71.9119 61.1119 72.5584 61.6669C72.6754 61.76 72.7717 61.9048 73.0158 61.9048V58.8023C73.0158 58.5162 73.0296 58.3577 73.4045 58.4473C75.1481 58.8575 76.8952 59.2332 78.6732 59.6331C77.7172 60.7362 74.9074 61.9979 72.0701 62.8011H72.0735ZM84.7915 56.3307C84.3891 57.5028 84.0143 58.6817 83.6015 59.8434C83.4881 60.1605 83.4846 60.5052 83.5912 60.8224C83.9592 62.022 84.3031 63.232 84.6574 64.4385C84.733 64.6005 84.7571 64.7797 84.7262 64.9555C83.268 64.9107 81.8545 64.5557 80.4306 64.3109C79.3164 64.1179 78.209 63.88 76.964 63.6353C78.3018 62.9527 79.5777 62.1495 80.7746 61.2429C81.3695 60.7845 81.6894 60.2915 81.6309 59.4849C81.5484 58.3094 81.6309 57.1236 81.6 55.9446C81.5896 55.5206 81.6859 55.3827 82.1193 55.462C82.9206 55.6068 83.7322 55.724 84.537 55.8343C84.8947 55.8895 84.8912 56.048 84.7915 56.3342V56.3307ZM83.4434 47.5163C82.2947 47.1199 81.1391 46.7441 79.9767 46.3891C78.2915 45.8754 77.5865 44.7551 77.3285 43.6037C76.4997 39.9153 75.6709 36.2268 74.8455 32.5417C74.5807 31.3525 74.9555 30.6079 76.2039 30.6803C77.3045 30.7492 78.405 30.8182 79.5055 30.894C80.7471 30.9733 81.5174 31.9006 81.8545 33.2622C82.8931 37.4505 83.9317 41.6423 84.9669 45.8341C85.2833 47.1509 85.1045 48.1092 83.4468 47.5197L83.4434 47.5163ZM87.3777 31.5248C87.8352 32.7486 88.2926 33.9861 88.75 35.2443C87.7354 35.0754 86.7174 34.9134 85.7029 34.7583C85.4793 34.7238 85.3968 34.8341 85.4725 35.1133L86.315 38.4743C86.4113 38.8535 86.5695 38.988 86.855 39.0535C87.4328 39.1879 88.0071 39.3258 88.5815 39.4706C89.4516 39.6843 90.0775 40.3565 90.4489 41.8353C90.9923 44.0071 91.5357 46.1822 92.0791 48.354C92.6259 50.5464 92.282 51.0876 90.6174 50.3395C89.424 49.8156 88.2238 49.3123 87.0098 48.84C86.5592 47.6714 86.1121 46.5132 85.6685 45.3687C86.7037 45.7134 87.7354 46.0754 88.7637 46.4511C89.0217 46.5442 89.0698 46.4718 89.0045 46.1891C88.719 45.055 88.4336 43.9174 88.1481 42.7833C88.0174 42.2662 87.8764 42.2007 87.4912 42.087C87.0098 41.9491 86.5248 41.8112 86.0399 41.6768C85.2042 41.4424 84.4029 41.0046 83.973 39.2741C83.4812 37.2954 82.9894 35.3202 82.4976 33.3415C82.1571 31.9661 82.4838 31.1215 83.7254 31.2146C84.9669 31.3077 86.1603 31.418 87.3743 31.5248H87.3812H87.3777ZM101.595 10.6108C101.564 10.9314 101.416 11.2279 101.183 11.445C98.8851 13.6443 96.6256 15.885 94.3076 18.0636C91.5185 20.68 88.7053 23.2654 85.8611 25.8232C85.3177 26.3093 84.7674 26.7884 84.224 27.2745C83.4502 25.8094 82.1021 24.8683 80.4375 24.2513C79.4574 23.8893 79.4436 23.9342 79.4436 22.8931C79.423 21.0041 78.4738 19.246 76.909 18.198C77.8685 17.2432 78.8349 16.2883 79.8185 15.3541C82.1605 13.1204 84.5267 10.9142 86.8928 8.70453C87.3158 8.65282 87.7389 8.60111 88.1619 8.55285C88.7053 8.48046 91.1539 8.42531 91.2433 7.85307C91.3431 7.22224 90.8891 6.87752 90.5246 6.48799C90.3251 6.28461 90.0878 6.1157 89.8299 5.99849C90.896 5.03328 91.9656 4.07497 93.0111 3.09597C93.4238 2.69954 93.9809 2.49271 94.5518 2.52719C96.5052 2.55476 98.1354 3.34417 99.4801 4.70925C101.083 6.32942 101.891 8.27363 101.595 10.6039V10.6108Z" fill="#010101"/>
<path d="M79.3696 34.0236C79.3214 33.8202 79.2354 33.6996 79.0497 33.6789C78.6955 33.6375 78.3378 33.5962 77.9836 33.5548C77.7944 33.5341 77.7669 33.6375 77.8116 33.8375C78.5786 37.0744 79.3421 40.3113 80.1055 43.5447C80.164 43.786 80.2259 43.886 80.4667 43.9515C80.8381 44.0549 81.2095 44.1618 81.5809 44.2686C81.8217 44.3376 81.8423 44.2617 81.7839 44.0135C80.9791 40.6836 80.1743 37.357 79.3696 34.0271V34.0236Z" fill="#010101"/>
<path d="M56.7937 32.1553C56.3329 32.1449 55.8686 32.138 55.4043 32.1311C55.4731 33.7513 55.5419 35.3749 55.6072 36.9951C56.0921 37.0089 56.577 37.0227 57.062 37.0399C57.3027 37.0502 57.3405 36.9847 57.3302 36.7952C57.2374 35.3301 57.1479 33.8651 57.0585 32.4C57.0482 32.2449 56.9863 32.1587 56.7971 32.1553H56.7937Z" fill="#010101"/>
<path d="M63.6348 39.3599C64.0922 39.4047 64.5496 39.4529 65.007 39.5046C64.5633 37.9327 64.13 36.3712 63.707 34.8199C63.6967 36.3401 63.6726 37.8534 63.6348 39.3599Z" fill="#010101"/>
<path d="M19.564 34.4235L18.2468 34.6165L16.627 41.0662C17.0809 40.9421 17.5383 40.8215 17.9992 40.7008C18.209 40.6456 18.2949 40.5319 18.3603 40.2561L19.7325 34.7544C19.7875 34.5338 19.7497 34.3959 19.564 34.42V34.4235Z" fill="#010101"/>
<path d="M38.5498 34.9371C38.0855 36.5366 37.6075 38.1464 37.1191 39.7701C37.5765 39.7115 38.034 39.6529 38.4914 39.5977C38.5017 38.0534 38.5189 36.5021 38.5498 34.9371Z" fill="#010101"/>
<path d="M44.8763 12.2271C45.093 12.4753 44.9004 12.5339 44.7113 12.627C44.2882 12.8269 43.7964 12.9441 43.6073 13.4543C45.0655 12.9304 46.2864 13.3475 47.2975 14.4437C48.3052 15.5364 49.5777 15.8674 50.9361 16.0949C51.0875 16.1224 51.2904 16.0569 51.4107 16.2741L50.6954 16.4361C50.2964 16.7085 49.7427 16.6809 49.4229 17.1049C49.8769 17.0463 50.324 16.9636 50.7676 16.8532C51.483 16.6464 52.2361 16.5154 52.9446 16.8808C53.3676 17.098 53.7081 17.2393 53.9729 16.6843C54.021 16.5809 54.1827 16.5223 54.3065 16.4706C54.9565 16.1983 55.4483 16.5568 55.9401 16.9015C56.2152 17.0945 56.3872 17.4496 56.7861 17.4565C57.8213 17.3048 58.8427 17.1221 59.8091 16.6912C60.1152 16.5533 60.3732 16.2741 60.7515 16.3155C61.8176 15.6295 63.4478 15.6915 64.4211 16.4534H64.5861C63.9533 15.1297 62.7909 15.1331 61.4943 15.2986C61.8967 14.4988 62.3954 13.9231 63.1864 13.6508C63.9774 13.3785 64.4211 13.9576 64.9472 14.4368C64.9163 14.0921 64.8062 13.7577 64.6308 13.4612C63.9464 12.0961 63.1898 11.8238 61.8245 12.496C60.5107 13.1337 59.2864 13.9473 58.1927 14.9194C57.7147 15.3503 57.1541 15.695 56.6554 16.1155C56.2359 16.4672 55.9539 15.9949 55.634 15.8501C55.3142 15.7053 55.5893 15.4882 55.6615 15.3124C55.9848 14.5298 55.8128 13.9852 55.0528 13.4268C54.4853 13.3888 54.2446 13.213 54.5438 12.5822C54.7192 12.2513 54.733 11.8548 54.5782 11.5136C54.1827 11.0551 53.6462 10.7414 53.0546 10.6276C52.2121 10.4656 51.5139 10.7655 51.2422 11.3516C51.4933 11.2688 51.7478 11.1964 52.0057 11.1413C53.2919 10.9172 54.2068 11.972 53.8216 13.2234C53.7666 13.4061 53.6875 13.5853 53.6221 13.7611C54.1208 13.7784 54.616 13.7611 55.0253 14.1507C55.4345 14.5402 55.3486 14.9573 55.266 15.3882C55.1835 15.7984 54.8258 15.7467 54.5197 15.7501C54.2033 15.7329 53.9007 15.8777 53.715 16.1362C53.4467 16.543 53.2954 16.4568 53.0787 16.0949C52.2843 14.7436 51.2181 13.575 49.9491 12.6649C49.4848 12.3305 49.1718 11.9927 49.2234 11.355C49.2544 10.9655 49.134 10.5553 49.0343 10.1623C48.8073 9.2798 48.1126 8.74893 47.2046 8.81098C46.761 8.84201 46.5478 8.76272 46.4652 8.27667C46.3724 7.69754 45.798 7.28044 45.1687 7.21494C44.6012 7.17013 44.0681 7.49071 43.8377 8.01468C44.3777 7.66307 44.9348 7.47692 45.571 7.79062C46.2073 8.10086 46.3758 8.36974 46.2589 9.07297C46.2176 9.33151 46.1179 9.49008 46.5409 9.43492C47.497 9.31082 48.3121 10.2002 48.2192 11.1861C48.1986 11.4205 48.1263 11.5101 47.8959 11.3895C47.7171 11.3171 47.5623 11.1999 47.4385 11.0516C46.1351 10.4794 44.7113 10.2278 43.2909 10.3174C42.0184 10.4105 40.9007 10.8138 40.1406 11.9238C40.5464 11.9169 40.8525 11.6515 41.1964 11.4963C42.352 10.9655 44.075 11.2964 44.8798 12.2168L44.8763 12.2271ZM57.9692 15.9294C58.8427 15.3744 59.4721 14.4299 60.5898 14.261C60.6139 14.1782 60.7549 14.3471 60.6552 14.3713C60.1462 15.202 59.5615 15.9397 58.5195 16.1328C58.3613 16.1983 58.1893 16.2017 58.0277 16.1431C57.9486 16.088 57.8454 16.0018 57.9623 15.9294H57.9692ZM50.6507 14.8504C49.1409 14.3471 48.0128 13.6026 47.3044 12.1789C48.6663 12.7856 49.7531 13.5784 50.6472 14.8504H50.6507Z" fill="#010101"/>
<path d="M35.4035 16.5396C35.8506 14.6333 38.0138 14.616 38.9424 15.6226C39.4686 16.1948 39.7644 16.8739 39.981 17.5944C40.0739 17.9012 40.1564 18.008 40.49 17.9012C41.1607 17.6978 41.7763 17.7978 42.2956 18.3217C42.8424 18.8698 42.6292 19.4421 42.385 20.0246C42.8906 19.9281 43.1107 19.5317 43.2448 19.1077C43.6128 17.9529 42.4297 16.8153 41.1228 17.0877C40.6414 17.1911 40.5038 17.0773 40.3869 16.6292C40.0361 15.2641 39.3207 14.1679 37.78 14.0852C36.0467 13.999 34.7226 14.8952 35.2694 16.9773C35.3141 16.8291 35.3657 16.6843 35.4001 16.5361L35.4035 16.5396Z" fill="#010101"/>
</g>
<defs>
<clipPath id="clip0_439_3437">
<rect width="104" height="87.5789" fill="white"/>
</clipPath>
</defs>
</svg>
