<svg width="62" height="932" viewBox="0 0 62 932" fill="none" xmlns="http://www.w3.org/2000/svg">
<rect width="62" height="932" fill="#E51F1F"/>
<line y1="-2.46397" x2="942" y2="-2.46397" transform="matrix(-4.37114e-08 1 1 4.37114e-08 44 0)" stroke="#F3F3F3" stroke-width="4.92793"/>
<line y1="-2.46397" x2="516" y2="-2.46397" transform="matrix(-4.37114e-08 1 1 4.37114e-08 18 0)" stroke="#F3F3F3" stroke-width="4.92793"/>
<path d="M18.4144 532.307L24.2949 539.889L33.7381 538.189L28.3445 546.125L32.8791 554.581L23.6652 551.903L17.0245 558.829L16.7236 549.238L8.08486 545.063L17.1127 541.813L18.4144 532.307Z" fill="#F3F3F3"/>
<path d="M18.4144 576.125L24.2949 583.707L33.7381 582.007L28.3445 589.943L32.8791 598.399L23.6652 595.721L17.0245 602.647L16.7236 593.057L8.08486 588.881L17.1127 585.631L18.4144 576.125Z" fill="#F3F3F3"/>
<path d="M18.4144 619.943L24.2949 627.525L33.7381 625.825L28.3445 633.761L32.8791 642.217L23.6652 639.539L17.0245 646.465L16.7236 636.875L8.08486 632.699L17.1127 629.449L18.4144 619.943Z" fill="#F3F3F3"/>
<path d="M18.4144 663.761L24.2949 671.343L33.7381 669.643L28.3445 677.579L32.8791 686.035L23.6652 683.357L17.0245 690.283L16.7236 680.693L8.08486 676.517L17.1127 673.267L18.4144 663.761Z" fill="#F3F3F3"/>
<path d="M18.4144 707.579L24.2949 715.161L33.7381 713.461L28.3445 721.397L32.8791 729.853L23.6652 727.175L17.0245 734.101L16.7236 724.511L8.08486 720.335L17.1127 717.086L18.4144 707.579Z" fill="#F3F3F3"/>
</svg>
