<svg width="136" height="52" viewBox="0 0 136 52" fill="none" xmlns="http://www.w3.org/2000/svg">
<path d="M26 10L30.2603 20.1362L41.2169 21.0557L32.8933 28.2398L35.4046 38.9443L26 33.248L16.5954 38.9443L19.1067 28.2398L10.7831 21.0557L21.7397 20.1362L26 10Z" fill="#010101"/>
<path d="M68 10L72.2603 20.1362L83.2169 21.0557L74.8933 28.2398L77.4046 38.9443L68 33.248L58.5954 38.9443L61.1067 28.2398L52.7831 21.0557L63.7397 20.1362L68 10Z" fill="#010101"/>
<path d="M110 10L114.26 20.1362L125.217 21.0557L116.893 28.2398L119.405 38.9443L110 33.248L100.595 38.9443L103.107 28.2398L94.7831 21.0557L105.74 20.1362L110 10Z" fill="#010101"/>
</svg>
